<?xml version="1.0" standalone="no"?>
<!DOCTYPE svg PUBLIC "-//W3C//DTD SVG 20010904//EN"
 "http://www.w3.org/TR/2001/REC-SVG-20010904/DTD/svg10.dtd">
<svg version="1.0" xmlns="http://www.w3.org/2000/svg"
 width="580.000000pt" height="580.000000pt" viewBox="0 0 580.000000 580.000000"
 preserveAspectRatio="xMidYMid meet">
<metadata>
Created by potrace 1.11, written by Peter Selinger 2001-2013
</metadata>
<g transform="translate(0.000000,580.000000) scale(0.100000,-0.100000)"
fill="#000000" stroke="none">
<path d="M2385 5100 c-3 -6 1 -7 9 -4 18 7 21 14 7 14 -6 0 -13 -4 -16 -10z"/>
<path d="M2552 5022 c-7 -9 -11 -12 -8 -7 7 15 -44 11 -54 -5 -6 -10 -9 -8
-13 6 -4 16 -5 16 -6 2 -1 -11 -6 -15 -16 -12 -9 4 -15 0 -15 -7 0 -11 -3 -11
-11 1 -8 12 -12 12 -16 2 -4 -10 -8 -10 -21 0 -13 11 -15 10 -9 -4 3 -10 2
-18 -3 -18 -6 0 -10 5 -10 11 0 5 -5 7 -10 4 -6 -4 -8 -10 -6 -14 3 -4 -1 -8
-9 -8 -8 0 -12 5 -9 11 3 6 -1 3 -9 -6 -16 -21 -31 -24 -22 -5 4 6 -1 3 -9 -7
-9 -11 -16 -16 -16 -11 0 5 -7 0 -16 -11 -8 -10 -13 -13 -9 -7 4 9 1 11 -9 7
-9 -3 -13 -11 -10 -16 4 -6 -3 -5 -15 1 -19 11 -25 8 -22 -11 0 -5 -4 -8 -10
-8 -5 0 -8 -4 -4 -9 3 -6 -6 -6 -25 -1 -19 5 -28 5 -25 -1 6 -9 -8 -13 -34
-10 -7 2 -10 -2 -6 -8 9 -16 -1 -13 -19 5 -15 14 -16 14 -16 -3 0 -15 -2 -16
-10 -3 -9 13 -10 13 -10 0 0 -13 -1 -13 -10 0 -9 13 -10 13 -10 0 0 -9 -3 -11
-8 -5 -11 15 -42 15 -42 -1 0 -8 -6 -14 -12 -14 -9 0 -8 -4 2 -10 8 -5 11 -10
5 -10 -5 0 5 -10 22 -21 18 -12 30 -26 26 -32 -3 -6 -1 -7 5 -3 16 10 54 -12
46 -26 -5 -7 -2 -8 5 -4 7 5 19 0 27 -10 9 -11 12 -12 8 -4 -7 13 -6 13 12 0
63 -49 76 -67 65 -87 -5 -11 -7 -23 -3 -27 3 -4 -2 -4 -12 0 -13 5 -17 4 -12
-4 4 -7 -1 -10 -14 -7 -11 2 -27 -3 -35 -11 -11 -12 -15 -12 -15 -2 -1 9 -5 7
-14 -4 -7 -10 -15 -15 -18 -13 -3 3 -11 -1 -17 -9 -9 -11 -19 -13 -37 -5 -17
6 -23 6 -19 -1 8 -13 -14 -42 -25 -35 -5 3 -11 1 -15 -4 -3 -5 -14 -8 -25 -6
-12 2 -18 0 -15 -6 4 -5 -1 -9 -9 -9 -9 0 -16 -4 -16 -10 0 -5 -7 -10 -17 -10
-9 0 -13 -3 -10 -7 4 -3 2 -12 -4 -20 -10 -11 -15 -11 -27 -1 -13 10 -14 10
-8 1 4 -9 1 -13 -9 -13 -11 0 -15 -5 -12 -14 4 -10 -1 -13 -19 -11 -19 2 -24
-1 -19 -13 4 -12 3 -13 -10 -2 -13 11 -14 10 -9 -5 6 -15 4 -16 -14 -6 -19 10
-21 9 -15 -5 4 -12 3 -15 -6 -10 -10 6 -10 4 0 -11 13 -22 10 -21 97 -23 44
-1 60 -5 55 -13 -5 -9 -3 -9 8 0 12 10 56 10 147 1 9 -1 8 -6 -3 -18 -8 -9
-12 -20 -8 -25 5 -4 2 -5 -5 -1 -7 4 -19 2 -27 -4 -8 -6 -20 -8 -26 -4 -8 5
-9 3 -5 -5 11 -17 -22 -51 -42 -44 -10 4 -13 2 -8 -5 4 -7 2 -12 -4 -12 -6 0
-9 -4 -6 -9 3 -5 -2 -8 -11 -7 -10 0 -18 -4 -18 -11 0 -6 -4 -15 -9 -20 -5 -5
-6 -2 -2 7 5 10 2 9 -7 -2 -10 -13 -17 -14 -25 -6 -8 8 -9 5 -5 -11 3 -12 1
-22 -6 -22 -32 -4 -36 -6 -33 -18 2 -9 -3 -11 -15 -7 -9 4 -14 4 -11 0 12 -11
-12 -45 -25 -37 -7 4 -5 -2 3 -12 14 -17 14 -18 -6 -7 -18 9 -20 8 -20 -11 1
-14 -4 -21 -14 -19 -11 2 -11 -1 3 -11 19 -16 24 -32 5 -21 -7 4 -8 3 -4 -4 5
-8 42 -10 120 -7 l113 5 12 -26 c7 -17 8 -23 0 -19 -6 4 -10 1 -8 -6 5 -38 -2
-70 -13 -63 -8 5 -9 2 -5 -9 4 -10 2 -17 -4 -17 -6 0 -9 -6 -6 -14 3 -8 -1
-20 -8 -26 -8 -7 -12 -16 -9 -21 3 -5 -2 -6 -11 -3 -11 5 -14 2 -8 -12 5 -13
3 -16 -10 -11 -9 3 -19 1 -23 -5 -4 -6 -3 -8 4 -4 6 3 13 2 17 -4 3 -6 -1 -13
-9 -16 -9 -3 -16 -10 -16 -16 0 -5 6 -6 13 -1 6 4 4 -5 -6 -20 -9 -15 -14 -27
-10 -27 5 0 1 -5 -7 -11 -13 -9 -13 -10 0 -7 8 1 25 -3 38 -10 16 -9 22 -10
22 -1 0 8 5 7 17 -2 11 -10 14 -10 9 -1 -4 6 -4 12 1 13 4 0 16 2 25 4 9 2 23
-4 30 -13 10 -12 10 -14 0 -8 -9 6 -11 -3 -8 -39 3 -25 1 -43 -3 -40 -5 2 -14
-2 -21 -10 -10 -12 -8 -13 13 -10 16 3 24 0 24 -10 0 -8 -4 -15 -9 -15 -5 0
-7 -4 -4 -8 7 -11 -22 -52 -36 -52 -7 0 -4 6 7 13 11 9 15 19 10 27 -5 8 -4
11 2 7 5 -3 10 0 10 8 0 8 -4 15 -9 15 -4 0 -8 -5 -8 -11 0 -5 -6 -7 -12 -3
-10 6 -10 4 0 -7 18 -20 15 -29 -13 -29 -19 0 -23 -4 -18 -17 5 -12 3 -14 -8
-7 -8 5 -24 9 -36 9 -18 1 -20 -2 -10 -13 7 -9 13 -10 15 -3 2 6 9 11 15 11 6
0 0 -11 -13 -25 -12 -13 -28 -22 -33 -18 -6 4 -8 0 -4 -10 4 -11 2 -14 -9 -10
-7 3 -14 10 -14 17 0 6 -4 4 -10 -4 -5 -9 -5 -19 2 -27 7 -9 6 -14 -6 -19 -15
-6 -15 -7 0 -19 12 -8 14 -14 6 -19 -7 -4 -12 -2 -12 5 0 7 -3 10 -6 6 -3 -3
-3 -11 1 -17 5 -8 10 -8 20 0 10 8 15 8 21 -1 4 -8 3 -9 -4 -5 -7 4 -12 2 -12
-5 0 -6 -8 -9 -19 -6 -19 5 -23 -15 -6 -30 4 -4 5 -2 1 5 -4 7 -2 12 6 13 7 0
22 2 32 4 15 3 13 -2 -9 -19 -27 -22 -28 -25 -13 -40 20 -19 32 -21 21 -3 -14
22 -11 33 11 35 15 1 17 -1 7 -7 -8 -5 -11 -16 -8 -26 4 -9 11 -14 16 -11 15
10 1 -58 -15 -70 -13 -10 -12 -13 2 -18 10 -4 22 -2 28 4 8 8 6 9 -6 5 -26
-10 -22 2 5 16 12 6 19 9 16 5 -4 -4 10 -26 32 -48 28 -30 38 -47 35 -67 -2
-20 1 -27 16 -27 22 0 22 1 2 20 -9 9 -11 16 -4 16 6 0 8 5 4 13 -5 8 -2 8 9
-2 11 -9 17 -10 17 -2 0 6 5 11 11 11 8 0 9 -4 0 -13 -6 -8 -7 -18 -3 -22 4
-5 0 -4 -8 0 -13 8 -13 7 0 -10 8 -10 14 -20 13 -22 -8 -11 -1 -14 10 -4 8 6
18 7 22 3 5 -4 5 -1 1 6 -4 7 -12 9 -18 6 -7 -5 -8 -2 -3 6 5 9 4 11 -3 6 -8
-5 -10 -2 -6 8 5 12 13 8 37 -19 16 -19 35 -32 40 -28 6 4 7 1 2 -7 -6 -9 -4
-12 7 -8 8 4 15 0 15 -7 0 -10 -5 -11 -19 -4 -14 7 -18 6 -18 -6 0 -12 -4 -13
-18 -6 -14 7 -19 6 -19 -3 0 -16 27 -17 46 -2 12 9 13 8 8 -7 -4 -10 -7 -21
-7 -23 0 -3 -4 -3 -9 0 -12 8 -8 -18 5 -35 22 -28 6 -107 -18 -93 -7 4 -8 2
-4 -4 10 -16 34 -4 43 21 10 32 10 40 0 61 -6 13 -6 16 2 12 6 -4 11 -2 11 3
0 6 5 11 11 11 8 0 7 -5 -2 -16 -10 -13 -10 -17 1 -24 8 -5 17 -7 21 -4 10 6
4 -34 -9 -68 -9 -21 -8 -29 5 -40 15 -11 16 -11 10 5 -8 20 1 47 15 47 7 0 7
-4 1 -12 -15 -19 -10 -67 7 -78 11 -7 11 -10 2 -10 -7 0 -10 -4 -7 -10 3 -5 2
-10 -3 -10 -11 0 -24 26 -26 49 -1 17 -26 28 -26 11 0 -6 5 -8 10 -5 17 11 11
-7 -7 -21 -15 -12 -16 -13 -2 -8 10 3 20 0 25 -7 4 -7 3 -10 -4 -5 -6 3 -14 2
-17 -4 -4 -6 -3 -10 2 -9 21 4 33 -3 33 -18 0 -13 -3 -14 -12 -5 -7 7 -17 12
-23 12 -5 0 -2 -5 8 -11 9 -6 14 -15 11 -21 -4 -6 -3 -8 2 -5 6 3 15 -3 22
-13 10 -16 9 -21 -6 -30 -16 -11 -16 -11 0 -6 10 3 24 -1 32 -9 17 -17 26 -19
26 -6 0 5 -9 12 -19 16 -13 4 -18 13 -16 26 3 12 0 17 -7 13 -6 -4 -8 -3 -4 4
3 5 2 12 -4 14 -6 2 -6 8 0 18 8 13 10 12 10 -2 0 -10 5 -18 10 -18 6 0 10 -6
9 -12 -3 -25 1 -39 10 -34 15 10 22 -25 9 -42 -12 -13 -10 -14 10 -3 16 9 22
18 17 29 -5 14 -4 15 7 4 11 -11 7 -18 -19 -42 -31 -28 -31 -29 -11 -36 16 -5
18 -8 7 -16 -10 -6 -6 -7 11 -2 23 6 24 5 11 -10 -12 -15 -12 -17 0 -14 8 2
13 -2 12 -9 -1 -6 5 -10 15 -8 9 1 25 -2 34 -6 20 -11 35 8 19 24 -8 8 -11 8
-11 -1 0 -7 -5 -12 -12 -12 -8 0 -6 7 5 18 16 15 19 15 27 2 13 -21 12 -26 -6
-44 -8 -9 -11 -16 -6 -16 5 0 15 7 22 15 14 17 30 20 30 4 0 -5 -4 -8 -8 -5
-4 2 -14 -4 -21 -16 -7 -11 -8 -17 -2 -13 6 3 11 1 11 -5 0 -7 8 -9 23 -4 12
3 19 3 15 -1 -4 -5 -3 -14 3 -21 6 -8 7 -14 0 -18 -6 -4 -8 -13 -5 -21 4 -8
11 -12 16 -9 6 4 5 10 -3 15 -10 6 -10 9 -2 9 19 0 24 -17 8 -30 -17 -14 -20
-30 -4 -30 5 0 8 4 5 8 -3 5 1 9 9 9 8 0 15 -4 15 -9 0 -4 -4 -8 -9 -8 -5 0
-7 -19 -6 -42 2 -23 0 -36 -5 -28 -12 20 -27 4 -25 -27 0 -15 -5 -34 -12 -41
-7 -8 -11 -18 -8 -23 4 -5 2 -9 -4 -9 -5 0 -14 8 -20 17 -8 14 -12 15 -25 4
-12 -10 -20 -11 -29 -2 -10 8 -17 7 -25 -1 -9 -9 -15 -9 -24 0 -7 7 -17 12
-22 12 -6 0 -1 -7 11 -15 30 -21 20 -40 -22 -41 -27 -1 -32 2 -24 12 7 8 7 14
-1 19 -9 6 -14 -1 -11 -18 2 -11 -14 -8 -27 5 -7 7 -12 9 -12 5 0 -4 14 -16
31 -26 17 -10 26 -22 21 -25 -6 -3 -25 6 -44 21 -25 20 -28 22 -14 5 17 -19
17 -22 3 -22 -10 0 -17 5 -17 10 0 6 -5 10 -11 10 -8 0 -8 -4 0 -14 9 -11 5
-18 -21 -35 -29 -18 -34 -19 -44 -6 -6 8 -15 15 -19 15 -4 0 -2 -6 4 -13 11
-14 5 -27 -11 -27 -5 0 -6 4 -3 10 3 5 0 7 -9 4 -12 -5 -12 -8 2 -23 18 -19
37 -18 26 1 -5 7 -2 8 6 3 8 -5 11 -4 7 2 -3 5 0 10 8 10 8 0 12 -4 10 -8 -3
-4 2 -9 10 -13 10 -4 20 6 29 29 8 19 20 35 27 35 8 0 7 -5 -2 -17 -13 -15
-11 -15 13 1 26 17 27 17 38 -4 6 -12 9 -24 6 -28 -3 -3 -6 0 -6 6 0 7 -5 12
-11 12 -5 0 -7 -6 -3 -12 6 -10 4 -10 -7 -2 -18 14 -51 14 -46 0 2 -6 13 -9
23 -8 10 2 17 2 14 0 -43 -33 -44 -33 -36 -19 6 9 5 12 -5 9 -8 -3 -13 -10
-12 -15 1 -5 -4 -10 -12 -10 -8 0 -12 4 -9 9 12 20 -40 -1 -57 -23 -11 -13
-19 -19 -18 -14 3 22 -2 26 -17 11 -8 -9 -19 -14 -24 -11 -5 3 -11 1 -15 -5
-3 -5 -1 -10 5 -10 6 0 8 -5 4 -11 -5 -8 -9 -8 -14 1 -14 22 -4 45 18 44 12
-1 19 2 17 7 -3 4 7 6 22 3 26 -4 27 -3 9 11 -10 8 -23 12 -29 8 -5 -3 -6 3
-2 17 5 17 4 21 -6 17 -8 -2 -13 -10 -11 -17 3 -15 -16 -40 -31 -40 -7 0 -7 4
1 12 7 7 12 15 12 19 0 9 -27 5 -37 -6 -4 -4 -2 -5 5 -1 16 9 16 -6 -1 -23 -9
-11 -9 -13 1 -7 8 5 12 0 11 -16 0 -13 -3 -17 -6 -10 -2 6 -11 12 -20 12 -9 0
-12 6 -8 19 3 12 0 21 -10 25 -11 4 -14 2 -8 -6 10 -18 11 -48 1 -54 -8 -5
-11 7 -9 36 0 10 -1 11 -5 2 -3 -6 -10 -10 -15 -6 -5 3 -12 -2 -15 -10 -3 -9
-10 -13 -15 -10 -5 3 -9 0 -9 -5 0 -6 5 -11 11 -11 5 0 7 -5 4 -11 -5 -7 -14
-4 -28 8 -11 10 -17 12 -13 6 4 -7 2 -13 -3 -13 -17 0 -13 -32 7 -46 15 -12
15 -12 -5 -7 -25 6 -32 -13 -8 -20 11 -4 10 -4 -2 -3 -14 1 -18 10 -18 36 0
24 -5 35 -15 35 -8 1 -14 7 -12 14 1 7 -2 10 -8 6 -8 -5 -8 -11 0 -20 17 -21
2 -42 -31 -40 -16 1 -27 0 -24 -3 2 -3 -3 -11 -13 -18 -14 -10 -18 -9 -28 14
-10 25 -11 24 -9 -15 1 -23 4 -46 8 -49 4 -4 7 -12 7 -18 0 -5 -6 -2 -13 9
-10 12 -16 14 -21 7 -4 -7 -2 -12 3 -12 6 0 11 -5 11 -12 0 -9 -3 -9 -12 0
-18 18 -32 14 -17 -5 10 -11 10 -14 2 -9 -24 14 -55 16 -50 3 3 -7 10 -11 16
-9 7 1 9 -3 6 -9 -5 -8 -10 -8 -18 0 -17 17 -27 13 -21 -7 5 -13 4 -14 -4 -3
-12 16 -47 7 -36 -10 4 -7 -1 -7 -16 1 -28 15 -13 34 28 35 16 0 26 6 24 14
-1 7 2 10 7 7 5 -4 12 -2 16 3 3 6 13 7 22 4 11 -4 14 -3 9 5 -5 8 -1 10 11 6
15 -5 16 -4 3 5 -13 10 -12 11 5 9 25 -4 26 32 2 56 -9 10 -17 13 -17 7 0 -5
7 -14 15 -18 10 -6 11 -12 4 -23 -8 -11 -12 -12 -16 -2 -2 6 -9 12 -15 12 -7
0 -7 -5 1 -13 6 -8 8 -17 4 -20 -9 -10 -25 -9 -19 1 2 4 -5 9 -16 9 -19 2 -19
1 -3 -11 13 -9 15 -15 7 -20 -7 -4 -12 -3 -12 2 0 5 -9 12 -20 15 -11 3 -17 1
-14 -4 7 -13 -15 -41 -27 -33 -5 3 -9 0 -9 -7 0 -7 -3 -9 -7 -6 -3 4 -12 2
-20 -4 -9 -8 -13 -8 -13 -1 0 6 7 15 16 20 15 8 14 10 -1 16 -10 3 -20 4 -23
1 -3 -3 0 -5 8 -5 10 0 10 -3 0 -15 -14 -17 -34 -10 -24 8 4 7 4 9 -1 5 -4 -4
-13 -3 -20 2 -8 7 -11 4 -10 -10 1 -11 5 -23 10 -27 4 -5 5 -2 0 6 -5 9 -3 12
5 9 7 -2 14 -12 16 -22 2 -11 -2 -16 -11 -12 -9 3 -12 0 -8 -10 4 -11 9 -12
16 -5 16 16 23 13 24 -9 1 -11 -3 -20 -8 -20 -6 0 -7 5 -3 12 5 8 2 9 -9 5 -9
-3 -19 -2 -22 4 -8 12 -25 2 -25 -14 0 -8 3 -8 9 2 6 9 9 5 9 -13 l0 -27 -16
22 c-12 17 -13 26 -3 41 8 13 9 23 1 36 -9 14 -10 14 -5 -5 5 -18 1 -25 -19
-34 -14 -7 -28 -20 -32 -31 -3 -10 -10 -16 -15 -12 -6 4 -4 14 5 28 9 15 11
27 5 37 -8 12 -10 12 -8 -1 1 -8 -1 -23 -6 -33 -7 -16 -8 -16 -19 -2 -10 15
-12 14 -12 -4 0 -11 4 -18 7 -15 4 2 10 0 14 -6 3 -5 1 -10 -4 -10 -6 0 -11
-5 -11 -11 0 -8 4 -8 13 -2 6 6 20 9 29 8 9 -2 15 2 14 8 -2 7 -1 9 1 5 3 -5
9 -8 15 -8 7 0 6 5 -1 14 -7 8 -8 17 -3 20 6 3 12 -3 15 -14 8 -31 7 -35 -10
-32 -8 2 -12 -1 -8 -7 3 -6 1 -11 -4 -11 -6 0 -11 5 -11 11 0 8 -4 9 -13 0 -8
-6 -16 -9 -18 -6 -3 2 -11 -5 -18 -17 -11 -18 -11 -20 4 -15 9 4 14 3 10 -3
-3 -5 -16 -8 -28 -6 -12 3 -25 5 -28 5 -3 1 -6 8 -6 16 0 9 5 14 11 12 6 -3
10 -10 9 -16 -4 -15 2 -14 17 5 8 8 9 14 4 13 -20 -4 -28 2 -14 11 8 5 11 12
7 17 -5 4 -12 1 -17 -7 -7 -11 -11 -11 -23 -1 -13 10 -15 9 -12 -6 1 -10 -7
-26 -19 -36 -11 -10 -15 -16 -8 -12 6 3 18 3 25 -2 6 -4 16 -8 21 -8 5 0 10
-8 12 -18 2 -15 0 -16 -12 -6 -8 6 -28 13 -44 15 -25 3 -29 0 -27 -16 2 -11 7
-23 12 -27 4 -5 4 -1 0 7 -8 13 -7 13 11 0 19 -14 19 -14 1 7 -19 22 -11 24
25 9 15 -7 16 -10 3 -22 -8 -8 -18 -14 -22 -13 -20 3 -27 -2 -13 -11 13 -8 12
-10 -2 -10 -10 0 -18 -5 -18 -11 0 -5 5 -7 12 -3 7 5 8 3 4 -5 -6 -9 -13 -8
-26 6 -16 17 -16 19 4 30 19 10 19 12 4 18 -10 4 -16 11 -13 15 3 4 -2 10 -10
14 -8 3 -17 0 -21 -6 -4 -7 -3 -8 4 -4 11 7 17 -7 12 -29 -6 -30 -6 -54 0 -50
4 3 13 -2 20 -10 10 -12 8 -14 -7 -10 -10 2 -26 6 -35 10 -24 10 -44 -30 -26
-53 11 -13 11 -15 -4 -9 -19 7 -52 -19 -43 -34 8 -12 35 -12 35 1 0 5 -8 6
-18 3 -15 -6 -15 -5 -3 11 14 16 16 16 29 -9 7 -15 19 -24 26 -22 7 3 12 -4
13 -17 0 -11 -1 -15 -4 -8 -3 6 -8 12 -13 12 -9 0 -8 -19 3 -37 4 -6 2 -15 -4
-18 -5 -4 -8 -13 -5 -21 3 -7 0 -11 -7 -8 -8 2 -13 -4 -14 -17 -2 -18 0 -19
15 -7 15 12 16 11 3 -4 -7 -10 -10 -18 -6 -18 4 0 2 -7 -5 -15 -10 -12 -10
-15 1 -15 12 0 12 -2 1 -9 -8 -4 -13 -11 -13 -15 3 -18 0 -26 -7 -26 -5 0 -9
7 -9 15 0 8 3 12 7 10 11 -7 6 39 -5 47 -6 5 -5 8 4 8 10 0 11 3 2 14 -7 8 -8
16 -4 18 4 3 2 3 -4 2 -7 -2 -13 1 -13 6 0 6 8 10 17 10 16 0 15 1 -1 13 -18
13 -13 52 6 41 5 -3 5 -11 -2 -19 -8 -9 -7 -14 3 -18 10 -4 13 2 11 19 -1 13
2 24 8 24 7 0 7 5 -1 13 -6 8 -7 17 -3 22 4 4 -2 3 -14 -3 -15 -8 -25 -8 -35
1 -7 7 -5 2 4 -10 10 -11 14 -24 9 -27 -5 -3 -12 -15 -15 -26 -3 -13 -1 -18 6
-13 7 4 8 0 4 -12 -4 -9 -2 -24 4 -32 7 -7 9 -16 6 -20 -4 -3 -2 -14 3 -24 6
-10 6 -20 1 -23 -10 -6 -24 30 -22 54 2 13 0 13 -8 1 -6 -9 -3 -25 10 -48 l20
-35 -23 6 c-13 3 -17 3 -10 0 6 -3 10 -10 7 -15 -4 -5 2 -6 12 -2 17 6 17 5
-1 -15 -11 -12 -16 -25 -13 -29 4 -3 7 0 7 8 0 11 2 11 10 -1 9 -13 10 -13 11
0 1 8 1 18 0 23 0 4 3 7 8 7 10 0 9 -38 -1 -55 -3 -6 -4 -18 -3 -27 2 -10 -1
-18 -5 -18 -5 0 -7 -9 -5 -21 3 -15 0 -19 -11 -15 -11 4 -13 2 -6 -11 11 -18
4 -55 -12 -65 -7 -5 -6 -8 3 -8 10 0 11 -3 2 -13 -6 -8 -9 -16 -6 -18 2 -3 0
-22 -6 -44 -21 -90 -21 -106 -2 -120 17 -13 17 -14 -5 -10 -12 2 -20 0 -17 -5
6 -10 24 -8 44 4 10 7 12 6 6 -4 -6 -10 -4 -12 8 -7 9 3 19 2 23 -4 3 -6 13
-8 21 -5 8 4 11 1 8 -5 -4 -6 -1 -10 6 -8 8 1 23 1 34 0 16 -1 17 -3 5 -11 -9
-6 -17 -5 -23 3 -6 8 -7 6 -3 -5 3 -10 -1 -18 -12 -21 -9 -3 -5 -4 10 -4 15 1
24 5 21 10 -3 6 10 8 31 5 21 -2 36 0 36 7 0 5 4 4 9 -4 10 -15 32 -23 64 -22
9 0 17 -4 17 -8 0 -11 -43 -9 -51 2 -3 5 -9 -1 -12 -12 -3 -11 -2 -20 2 -19
19 2 22 -4 10 -20 -13 -15 -12 -16 3 -4 9 8 14 20 12 27 -4 9 1 12 13 10 10
-2 20 -4 23 -4 3 -1 -2 -6 -10 -12 -13 -9 -13 -10 0 -6 8 2 15 9 15 15 0 5 4
14 9 19 5 4 6 3 2 -4 -3 -6 -1 -15 5 -19 8 -4 4 -11 -12 -20 -13 -7 -20 -13
-16 -14 17 0 47 21 42 31 -11 17 5 31 21 18 8 -6 14 -8 14 -3 0 5 5 1 11 -8 5
-10 15 -18 20 -18 6 0 7 5 4 10 -3 6 -1 10 4 10 6 0 11 -4 11 -9 0 -6 9 -8 20
-6 11 2 20 -1 20 -7 0 -6 3 -8 7 -5 3 4 12 2 20 -4 10 -9 13 -8 13 1 0 10 5 9
18 -2 9 -8 32 -14 49 -13 26 1 30 -1 22 -12 -9 -10 -8 -13 1 -13 8 0 10 -3 7
-6 -4 -4 -13 -1 -22 6 -9 7 -18 10 -22 7 -3 -4 -12 -2 -20 4 -9 9 -13 8 -13 0
0 -6 -6 -11 -14 -11 -8 0 -18 -5 -22 -12 -5 -8 -2 -9 9 -5 49 20 52 20 40 6
-7 -7 -13 -17 -13 -22 0 -5 8 1 19 14 15 19 21 21 34 11 19 -16 47 -5 40 16
-4 15 -3 15 6 2 9 -13 11 -13 11 -1 0 11 4 10 16 -5 15 -18 15 -18 10 0 -6 16
-4 17 9 6 19 -16 3 -30 -26 -25 -13 3 -16 -1 -12 -13 4 -10 8 -12 11 -4 2 7 8
9 13 6 6 -3 5 -11 -2 -20 -8 -10 -8 -14 0 -14 6 0 11 5 11 10 0 6 7 10 15 10
8 0 15 4 15 10 0 5 -8 7 -17 4 -14 -5 -15 -4 -4 4 7 5 16 14 20 20 4 7 12 3
20 -9 7 -12 8 -18 2 -14 -6 3 -11 1 -11 -4 0 -15 15 -14 29 3 9 11 9 15 -1 19
-8 3 -8 6 -2 6 6 1 17 -6 24 -14 18 -21 35 -19 19 3 -12 15 -12 16 2 5 9 -7
19 -9 23 -5 4 4 6 1 4 -7 -2 -7 3 -16 10 -18 8 -3 10 2 6 14 -5 14 -4 15 4 3
7 -8 7 -19 2 -25 -5 -6 -5 -17 2 -25 8 -12 9 -12 4 3 -3 9 -2 18 2 18 33 6 52
5 52 -3 0 -6 -7 -8 -15 -5 -21 9 -31 -14 -11 -25 9 -5 14 -13 11 -18 -3 -5 0
-12 7 -16 7 -4 10 -4 6 1 -4 4 4 17 18 27 14 11 22 23 19 26 -3 4 -10 0 -14
-7 -6 -9 -11 -10 -15 -2 -4 6 -3 11 3 11 6 0 9 6 7 13 -1 6 -1 9 1 4 3 -4 9
-5 14 -1 5 3 9 0 9 -7 0 -7 3 -9 7 -6 8 9 33 -12 33 -27 0 -6 -7 -3 -14 7 -12
16 -14 16 -20 2 -3 -9 -2 -13 4 -10 6 3 10 1 10 -5 0 -7 8 -9 23 -5 18 6 20 5
10 -6 -7 -7 -13 -18 -13 -23 0 -13 34 35 36 51 1 7 -2 13 -8 13 -6 0 -7 -8 -4
-17 5 -15 4 -15 -9 1 -8 11 -15 25 -15 30 0 6 5 4 10 -4 8 -12 10 -13 10 -1 0
10 7 8 23 -7 29 -28 46 -29 22 -2 -10 11 -15 20 -12 20 3 0 15 -10 27 -22 18
-20 20 -20 20 -3 0 18 1 18 16 -1 11 -13 17 -15 20 -6 7 16 21 16 21 0 0 -7 4
-20 7 -29 5 -10 2 -16 -9 -16 -11 0 -14 6 -9 21 4 15 3 17 -4 7 -6 -8 -12 -9
-16 -3 -8 13 -46 12 -46 -1 0 -5 -6 -4 -14 2 -11 9 -15 8 -20 -5 -8 -21 -8
-24 5 -24 5 0 7 5 4 10 -4 6 2 9 14 7 24 -4 40 -17 21 -17 -7 0 -10 -3 -7 -7
4 -3 17 2 29 13 18 16 20 16 15 2 -4 -11 -1 -15 11 -13 9 1 22 -2 28 -7 8 -5
17 -3 27 6 13 14 16 14 27 1 7 -8 17 -15 23 -15 6 0 2 7 -9 16 -19 15 -19 16
1 8 23 -8 44 -9 64 -3 7 2 16 -2 19 -10 2 -8 0 -11 -5 -8 -13 8 -39 -10 -29
-20 5 -4 11 -2 13 5 4 9 9 10 17 3 9 -8 12 -3 12 19 0 16 -3 27 -8 24 -4 -3
-5 1 -3 8 3 8 16 14 28 15 12 0 16 -1 10 -4 -15 -5 -18 -43 -3 -43 11 0 32 35
25 42 -3 3 2 5 10 5 8 0 12 -4 10 -8 -3 -3 2 -12 9 -18 9 -8 17 -8 20 -2 3 5
1 11 -6 13 -7 3 -5 7 6 11 9 4 15 3 13 -1 -3 -4 1 -13 8 -19 11 -10 17 -10 28
2 13 13 16 13 21 -1 7 -18 36 -15 53 6 12 14 13 13 13 -17 0 -5 -4 -9 -10 -9
-5 -1 -11 -2 -12 -4 -8 -6 -38 -7 -38 -1 0 4 -13 7 -30 7 -32 0 -37 -5 -18
-24 15 -15 28 -15 28 -1 0 5 -4 7 -10 4 -5 -3 -10 -1 -10 5 0 7 7 9 16 6 9 -3
18 -6 20 -6 3 0 2 -5 -1 -10 -3 -6 -1 -10 4 -10 6 0 11 5 11 12 0 13 14 2 16
-13 1 -5 2 -11 3 -14 0 -3 10 -1 22 5 11 7 18 18 15 25 -3 8 3 17 14 20 10 3
18 11 16 18 -1 7 -1 9 1 4 3 -4 10 -4 16 0 8 5 8 2 0 -9 -7 -8 -9 -18 -5 -22
4 -4 1 -6 -7 -4 -7 2 -15 -6 -17 -17 -3 -21 12 -45 30 -45 6 0 3 5 -6 11 -10
5 -18 15 -18 21 0 7 5 7 14 -1 11 -10 16 -8 21 9 7 21 20 19 20 -3 0 -7 9 -13
20 -14 17 -2 17 -2 3 5 -12 5 -15 11 -8 22 8 12 10 12 10 1 0 -7 6 -11 14 -8
7 3 23 -1 34 -9 17 -12 21 -12 26 2 3 8 1 25 -5 37 -11 20 -10 20 15 -3 15
-13 22 -26 17 -28 -13 -4 -4 -22 10 -22 6 0 8 4 5 9 -3 5 2 15 11 22 14 12 15
11 8 -10 -4 -15 -3 -21 3 -17 5 3 12 15 15 26 3 13 1 18 -5 13 -7 -3 -8 -1 -4
6 4 6 12 9 17 6 5 -4 9 1 9 9 0 9 4 16 10 16 5 0 7 -8 3 -17 -6 -16 -3 -16 18
2 13 11 21 16 17 11 -4 -5 -3 -14 2 -21 7 -8 1 -11 -23 -11 -22 1 -31 -3 -29
-13 1 -7 -3 -19 -9 -27 -6 -8 -8 -14 -4 -14 4 0 2 -6 -4 -13 -8 -10 -7 -14 3
-14 8 0 13 8 11 17 -4 18 48 64 59 53 3 -4 -5 -14 -20 -23 -23 -16 -23 -18 -8
-24 10 -4 15 -4 11 0 -4 4 2 14 13 21 11 8 18 19 15 24 -4 5 1 9 10 9 12 0 15
-5 11 -17 -4 -10 -4 -14 0 -10 4 4 13 -1 21 -11 12 -16 13 -15 6 3 -6 18 -5
19 12 5 10 -8 16 -10 12 -3 -9 14 13 23 33 12 9 -4 36 -6 60 -5 25 2 48 -1 51
-7 4 -5 10 0 14 12 3 11 11 21 16 21 6 0 8 -4 5 -8 -2 -4 0 -14 6 -22 8 -12 9
-12 4 2 -3 10 -1 20 4 23 6 4 10 1 10 -5 0 -6 5 -8 10 -5 6 3 13 0 16 -9 5
-12 10 -13 30 -4 30 14 31 23 2 25 -18 2 -20 0 -8 -8 12 -8 11 -9 -5 -7 -11 2
-20 10 -20 17 0 8 -7 16 -15 18 -13 4 -13 3 0 -6 12 -9 8 -10 -17 -6 -24 4
-35 1 -42 -12 -6 -10 -11 -13 -11 -6 0 13 -40 14 -40 1 0 -4 -5 -8 -11 -8 -5
0 -8 4 -5 8 3 5 -1 9 -9 9 -8 0 -12 -4 -9 -9 3 -4 -2 -8 -12 -8 -14 0 -15 2
-3 17 8 9 9 14 4 11 -7 -4 -11 3 -11 17 0 18 3 22 13 14 6 -6 18 -8 25 -4 7 4
5 0 -5 -8 -11 -9 -14 -18 -8 -21 6 -4 16 2 23 13 11 17 13 18 23 4 8 -10 17
-13 25 -8 11 7 9 10 -5 15 -18 6 -17 7 3 12 13 4 20 2 19 -6 -1 -6 5 -11 13
-11 8 0 14 6 12 14 -3 12 0 12 12 2 8 -7 21 -9 27 -5 7 4 9 3 6 -3 -4 -6 0
-14 9 -17 22 -8 26 -8 19 3 -3 5 -1 12 4 15 5 4 12 2 16 -4 4 -6 10 -8 13 -6
4 2 18 -2 32 -10 14 -7 19 -13 13 -14 -7 0 -13 -4 -13 -9 0 -10 47 -8 57 3 3
3 12 1 19 -5 17 -14 35 -3 27 17 -4 11 -9 12 -18 4 -9 -8 -15 -8 -20 0 -3 5
-12 10 -18 10 -8 0 -8 -3 1 -9 11 -6 10 -10 -4 -15 -9 -3 -19 -4 -22 -1 -3 3
-2 5 3 5 4 0 0 9 -9 19 -12 13 -14 21 -6 26 6 3 9 1 8 -6 -2 -6 3 -14 11 -17
9 -3 11 0 6 8 -6 9 -3 9 14 1 12 -7 21 -8 21 -2 0 5 -5 11 -12 13 -8 3 -6 7 5
11 9 3 16 3 16 -1 -3 -21 3 -30 19 -27 9 2 19 4 22 4 3 1 -2 6 -10 12 -13 9
-13 10 0 6 8 -2 14 -10 13 -16 -2 -6 2 -11 9 -11 9 0 9 -3 1 -11 -6 -6 -9 -18
-6 -26 3 -8 0 -13 -7 -11 -7 2 -15 -4 -17 -12 -3 -10 -2 -11 4 -4 4 6 16 10
25 8 10 -1 21 3 25 8 3 6 2 8 -4 5 -5 -3 -9 11 -10 34 0 21 3 39 8 39 5 0 5
-8 2 -18 -6 -14 -4 -15 8 -5 12 10 18 10 28 0 11 -10 12 -7 6 13 -3 14 -3 20
2 15 4 -6 21 -11 37 -10 16 0 30 -6 32 -13 1 -7 0 -8 -3 -2 -2 5 -10 7 -16 3
-15 -9 -35 -14 -65 -16 -15 -1 -21 -6 -17 -15 3 -7 5 -16 5 -18 0 -2 4 -4 10
-4 5 0 7 6 4 13 -3 8 1 14 8 15 7 0 26 3 42 7 27 6 28 5 15 -12 -12 -15 -10
-15 9 1 22 19 23 19 40 2 16 -17 16 -18 -5 -12 -12 4 -24 2 -28 -3 -4 -7 1 -8
12 -4 16 6 17 5 3 -13 -14 -17 -14 -18 2 -6 9 8 21 11 27 8 11 -7 9 13 -3 33
-6 9 -5 12 5 9 8 -3 20 -15 27 -29 l14 -24 -6 27 c-3 15 -1 30 5 33 6 4 8 19
5 34 -5 17 -4 21 2 12 7 -9 11 -10 17 -2 5 9 10 9 21 0 12 -10 18 -8 29 7 15
18 15 18 8 -1 -6 -17 -4 -18 8 -8 12 10 18 10 27 1 9 -9 15 -9 24 0 9 9 8 12
-7 12 -10 0 -16 3 -12 6 8 8 47 -6 47 -17 0 -6 -4 -8 -9 -4 -5 3 -12 1 -15 -3
-3 -5 5 -9 17 -8 12 1 21 7 20 14 -2 7 2 12 7 12 13 0 13 -6 0 -30 -6 -11 -17
-17 -25 -14 -29 11 -15 -6 18 -21 20 -10 26 -11 16 -3 -21 17 -4 44 26 43 11
0 28 3 37 7 9 5 19 4 23 -1 3 -5 -4 -12 -15 -16 -11 -3 -20 -10 -20 -15 0 -5
16 0 35 11 27 17 38 19 49 10 11 -9 17 -9 28 2 11 12 16 12 38 0 17 -10 20
-11 9 -2 -16 14 -19 20 -19 39 0 6 -5 10 -11 10 -5 0 -8 -4 -5 -9 3 -4 -3 -16
-12 -25 -17 -15 -20 -14 -39 3 -12 11 -24 17 -27 13 -12 -12 -33 -10 -33 4 0
7 4 11 9 8 4 -3 8 1 8 8 0 9 3 9 10 -2 5 -8 10 -11 10 -6 0 5 6 4 13 -1 16
-12 59 -15 52 -3 -3 5 4 14 15 20 11 6 20 8 20 4 0 -3 7 -1 16 6 8 8 14 9 13
4 -3 -20 2 -24 15 -12 8 7 11 18 8 23 -3 6 1 5 9 -1 18 -14 49 -14 49 0 0 5 7
1 15 -10 14 -18 14 -18 10 5 -3 18 -2 22 7 13 8 -8 14 -7 23 5 10 13 14 13 20
3 5 -8 4 -11 -2 -7 -6 4 -10 -8 -10 -29 0 -24 3 -31 9 -21 5 9 17 13 30 11 21
-4 21 -4 3 5 -11 4 -24 6 -30 4 -5 -2 -3 1 6 9 9 7 15 19 13 26 -1 7 0 8 3 2
8 -16 23 -12 24 8 0 10 3 12 6 4 2 -6 9 -9 14 -6 6 3 17 0 26 -8 15 -11 16
-11 9 7 -4 11 -4 16 0 12 4 -4 14 -1 22 6 13 10 14 9 7 -2 -6 -11 -4 -13 11
-7 10 4 24 9 29 10 6 1 16 5 23 9 6 5 12 5 12 0 0 -4 5 -1 10 7 6 10 10 11 10
3 0 -7 5 -13 11 -13 5 0 7 6 3 13 -5 8 -2 8 9 -2 15 -12 21 -9 19 10 -1 3 5 6
13 6 7 0 11 -7 8 -16 -3 -12 -1 -12 11 3 8 10 19 15 24 12 6 -3 13 0 16 6 3 7
3 0 1 -15 -2 -16 0 -38 6 -50 8 -19 9 -18 4 7 -5 24 -4 28 8 18 11 -9 14 -8
14 3 0 8 -4 12 -8 9 -4 -2 -10 0 -14 6 -3 5 3 10 14 10 11 0 19 6 17 13 -1 6
-1 9 1 4 3 -4 9 -5 13 -2 5 3 11 1 14 -4 4 -5 1 -13 -5 -17 -8 -5 -9 -3 -4 7
5 8 4 11 0 6 -5 -4 -10 -18 -12 -30 -2 -19 -2 -20 8 -5 9 17 12 17 42 3 23
-12 27 -12 15 -2 -10 8 -15 17 -11 21 4 4 -1 4 -11 0 -14 -5 -17 -4 -12 5 4 6
3 18 -4 26 -9 11 -7 13 7 10 10 -1 17 -8 15 -15 -1 -6 2 -8 8 -5 6 4 9 14 6
24 -5 14 -5 14 6 0 15 -18 54 -30 74 -22 21 8 17 19 -8 20 -18 2 -20 0 -8 -7
8 -5 11 -10 5 -10 -5 1 -18 7 -29 15 -18 14 -18 14 0 14 24 0 46 5 61 14 8 5
11 1 8 -13 -2 -11 1 -23 7 -26 7 -4 8 -2 4 4 -4 7 -2 12 3 12 6 0 11 -5 11
-12 0 -6 3 -8 6 -5 4 4 2 12 -4 20 -6 7 -8 17 -4 22 8 12 54 16 47 5 -3 -5 1
-10 7 -13 20 -6 46 4 53 20 4 13 3 14 -10 3 -8 -7 -15 -9 -15 -4 0 5 -5 2 -10
-6 -8 -13 -10 -12 -10 3 0 9 5 18 10 18 6 1 16 2 23 3 6 1 18 -2 25 -7 9 -7
11 -6 6 7 -4 12 -2 15 9 10 8 -3 18 -1 22 5 10 17 25 13 26 -6 0 -14 3 -12 10
5 5 13 14 20 19 17 13 -8 10 84 -3 102 -12 17 0 46 14 37 8 -4 9 -3 5 5 -4 6
-11 9 -16 6 -13 -8 -29 72 -16 86 8 9 8 10 0 6 -8 -4 -14 12 -19 46 -15 94
-15 96 0 90 16 -5 16 -24 0 -35 -6 -5 -5 -8 3 -8 8 0 10 -5 6 -12 -4 -7 -3 -9
2 -5 18 17 11 58 -12 74 -19 12 -23 22 -19 49 2 19 1 33 -3 30 -8 -5 -9 2 -15
59 -1 17 -7 37 -11 45 -5 8 -6 12 -1 8 4 -4 17 4 27 18 14 17 24 22 32 15 8
-7 12 -4 12 9 0 18 -2 18 -23 5 -25 -17 -31 -5 -9 18 13 12 11 16 -11 26 -14
6 -28 9 -31 6 -3 -3 1 -5 9 -5 12 0 11 -2 -1 -11 -12 -8 -10 -9 7 -4 18 5 22
3 17 -9 -3 -9 -9 -14 -14 -11 -4 2 -6 -7 -4 -20 1 -14 -1 -25 -6 -25 -4 0 -8
10 -8 23 -1 12 -2 36 -4 52 -2 23 1 30 15 29 9 -1 17 2 17 7 0 12 -17 11 -43
-2 -18 -9 -20 -9 -9 2 17 18 15 30 -5 22 -10 -4 -14 -2 -10 4 4 6 0 16 -8 23
-8 7 -12 16 -10 21 3 4 -3 13 -12 19 -14 9 -14 10 -2 7 12 -4 16 1 14 16 -4
37 -5 38 -17 31 -8 -5 -9 -2 -5 9 3 10 2 17 -2 17 -5 0 -12 -7 -15 -16 -8 -21
-8 -26 2 -20 12 7 38 -12 29 -21 -5 -4 -12 -1 -17 7 -7 11 -10 12 -10 2 0 -10
-5 -8 -17 4 -10 10 -18 22 -18 28 0 6 -6 11 -13 11 -7 0 -17 7 -22 15 -5 8
-13 15 -18 15 -11 0 -62 38 -62 46 0 3 7 6 15 6 8 0 11 -5 8 -10 -4 -6 -1 -7
7 -2 9 6 11 4 5 -5 -5 -8 -4 -11 3 -6 6 3 13 2 17 -4 4 -7 12 -7 26 0 25 14
24 27 -3 40 -22 11 -22 10 -4 -4 11 -9 17 -19 13 -22 -4 -4 -13 -2 -20 4 -8 7
-16 9 -20 6 -3 -3 -13 6 -22 20 -10 15 -23 26 -29 25 -25 -3 -37 2 -30 13 4 6
3 8 -4 4 -6 -3 -14 -1 -17 5 -4 5 -14 8 -22 5 -11 -5 -13 -1 -8 15 5 15 4 19
-4 15 -6 -4 -11 -14 -11 -22 0 -13 -12 -18 -32 -15 -5 0 -8 -4 -8 -9 0 -6 -4
-10 -8 -10 -5 0 -9 6 -9 14 0 8 8 13 18 11 29 -6 29 7 3 38 -13 16 -24 25 -24
21 0 -4 7 -16 17 -26 15 -17 15 -18 -11 -18 -15 0 -25 -4 -21 -9 3 -5 1 -13
-5 -16 -6 -4 -10 -3 -9 2 3 19 -2 27 -10 15 -6 -11 -10 -10 -15 4 -4 10 -4 15
0 11 4 -4 13 1 21 11 13 16 14 16 9 0 -3 -12 -1 -15 9 -12 12 5 12 10 -2 30
-8 13 -20 24 -27 23 -7 0 -6 -2 2 -6 6 -2 12 -9 12 -14 0 -6 -6 -7 -12 -3 -7
4 -10 4 -6 -1 12 -13 -35 -34 -49 -22 -7 5 -10 13 -7 18 3 5 0 9 -6 9 -6 0 -8
5 -5 10 4 6 9 9 13 6 4 -2 16 1 27 5 19 9 18 9 -2 5 -17 -3 -25 3 -35 25 -7
16 -17 29 -22 29 -4 0 -1 -11 8 -25 22 -33 20 -45 -3 -18 -19 23 -31 21 -31
-6 0 -12 2 -13 9 -3 6 10 10 10 21 -3 10 -12 10 -15 0 -15 -10 0 -10 -3 0 -15
23 -27 0 -16 -25 12 -17 21 -21 32 -14 45 8 14 6 16 -7 11 -13 -5 -15 -3 -9 8
7 11 6 12 -7 2 -8 -7 -18 -10 -21 -6 -4 3 1 12 11 20 15 13 15 13 -4 4 -21
-10 -34 -6 -34 12 0 5 8 6 18 2 14 -5 15 -4 5 6 -10 10 -16 10 -24 2 -14 -14
20 -65 39 -58 8 3 10 0 6 -7 -5 -7 -2 -8 7 -3 8 5 11 4 6 0 -4 -5 0 -19 9 -32
l15 -24 -25 16 c-14 10 -23 21 -20 26 3 5 0 9 -5 9 -6 0 -11 -5 -11 -11 0 -5
-5 -7 -11 -3 -8 5 -8 9 1 14 7 4 8 9 4 12 -8 4 -17 4 -41 -1 -5 -1 -1 -6 7
-12 13 -9 13 -10 0 -6 -8 2 -15 9 -15 15 0 6 -6 17 -14 24 -12 11 -13 10 -8
-4 5 -13 2 -15 -11 -11 -9 4 -22 14 -29 22 -11 14 -12 14 -13 1 0 -10 -5 -7
-16 8 -13 19 -19 21 -30 11 -9 -7 -14 -8 -13 -3 4 21 -2 28 -12 14 -9 -13 -10
-12 -5 3 6 19 -9 24 -20 6 -4 -8 -9 -7 -15 2 -8 14 -12 15 -46 18 -16 1 -16 3
-3 12 12 9 11 10 -7 6 -13 -3 -26 -1 -29 4 -3 5 -10 6 -16 3 -7 -4 -8 -2 -4 5
5 8 1 11 -16 8 -12 -2 -17 -2 -9 0 12 4 12 6 0 14 -11 8 -9 9 6 7 11 -2 28
-12 38 -23 16 -17 18 -17 13 -2 -5 16 -4 16 19 1 14 -9 25 -21 25 -26 0 -5 6
-6 13 -1 6 4 18 8 25 9 10 2 11 -1 1 -12 -8 -10 -8 -14 0 -14 6 0 11 4 11 8 0
5 7 9 15 9 8 0 11 -5 8 -10 -4 -6 -1 -7 7 -2 8 5 11 4 6 -3 -4 -7 1 -10 14 -7
11 2 18 0 15 -5 -3 -5 4 -7 15 -5 13 3 18 0 14 -7 -5 -7 -2 -8 6 -3 9 6 11 4
5 -5 -5 -9 -4 -11 4 -6 6 4 10 4 9 -1 -3 -7 7 -15 15 -12 22 7 36 5 31 -3 -5
-7 -2 -8 6 -3 8 5 11 4 7 -2 -3 -5 0 -10 7 -10 11 0 12 4 3 19 -7 10 -15 18
-19 18 -4 0 -5 6 -2 14 8 22 -12 28 -27 8 -13 -15 -12 -16 4 -3 20 15 24 -1 4
-17 -10 -9 -17 -6 -29 8 -9 10 -13 22 -10 26 4 4 1 4 -5 0 -8 -4 -13 -2 -13 6
0 8 -3 9 -8 3 -11 -16 -25 -12 -51 12 -19 17 -28 20 -38 12 -26 -22 -12 6 15
29 l27 24 -32 -21 c-17 -12 -34 -17 -37 -12 -4 5 0 11 6 14 7 2 10 8 6 12 -4
4 -16 -3 -27 -16 -11 -13 -23 -21 -27 -16 -4 4 1 14 12 23 17 13 16 14 -12 0
-30 -14 -32 -14 -53 12 -11 14 -21 31 -21 36 0 5 -3 7 -6 4 -3 -4 -1 -16 6
-27 11 -21 4 -27 -16 -13 -6 4 -10 19 -8 34 l2 27 -24 -22 c-25 -22 -32 -33
-12 -21 7 5 8 3 3 -6 -5 -8 -4 -11 2 -7 16 10 34 -16 23 -33 -7 -11 -10 -12
-10 -2 0 7 -4 11 -8 8 -4 -2 -19 4 -32 14 -21 16 -23 21 -12 32 11 11 12 10 7
-4 -4 -10 -3 -18 2 -18 5 0 10 6 10 13 0 6 3 19 7 27 9 23 -9 44 -30 35 -11
-5 -22 -8 -26 -7 -11 2 -18 -27 -7 -34 13 -8 40 16 32 28 -3 6 0 9 7 6 8 -2
15 -9 17 -14 4 -13 -45 -37 -58 -29 -5 4 -9 0 -9 -7 0 -7 -11 3 -24 22 -22 32
-23 36 -8 47 9 7 11 13 6 13 -6 0 -16 -6 -23 -12 -10 -11 -16 -9 -31 10 -11
13 -21 18 -25 12 -3 -5 -1 -10 4 -10 6 0 10 -6 9 -12 -2 -7 3 -12 10 -10 8 1
11 -2 7 -8 -4 -6 1 -7 12 -4 15 5 16 4 3 -6 -13 -10 -13 -11 3 -6 9 3 17 1 17
-4 0 -15 -26 -12 -40 5 -7 9 -20 13 -27 10 -8 -3 -21 1 -29 9 -18 18 -18 23 1
23 8 0 12 -4 9 -8 -2 -4 1 -11 7 -15 9 -5 10 1 5 19 -4 19 -1 29 11 36 10 6
13 11 6 11 -6 0 -15 -5 -18 -10 -4 -6 -11 -8 -16 -5 -5 3 -6 -1 -3 -9 4 -10 0
-14 -12 -12 -10 2 -20 9 -22 16 -3 7 0 10 7 6 7 -5 8 -1 4 10 -4 11 -8 13 -11
6 -2 -7 -7 -10 -11 -8 -4 3 -7 -4 -7 -14 0 -10 5 -16 10 -13 5 4 6 1 1 -7 -5
-8 -4 -11 3 -6 6 3 9 -1 8 -11 -4 -26 -19 -25 -39 2 -12 17 -14 26 -5 31 7 5
8 3 3 -6 -5 -8 -4 -11 3 -6 13 8 5 36 -10 36 -5 0 -6 -4 -3 -10 3 -5 1 -10 -4
-10 -10 0 -16 22 -12 44 1 5 -6 17 -15 27 -9 11 -14 19 -9 19 4 0 1 8 -6 18
-13 15 -12 16 4 3 16 -12 19 -9 16 15 0 4 5 11 13 15 8 6 9 9 1 9 -15 0 -10
29 8 42 11 8 10 9 -4 4 -15 -5 -17 -2 -12 17 6 20 5 21 -8 5 -8 -10 -18 -18
-22 -18 -5 0 -1 8 8 18 10 10 14 22 10 26 -4 4 -1 11 7 16 24 15 36 11 14 -5
-10 -8 -14 -14 -9 -14 6 -1 21 9 35 20 14 11 19 17 11 13 -9 -4 -12 -3 -7 4 3
6 -2 15 -11 21 -10 6 -13 11 -6 11 6 0 15 -4 18 -10 3 -5 13 -10 21 -10 8 0
13 4 9 9 -3 5 0 21 7 36 8 18 14 22 19 13 5 -7 13 -13 19 -13 6 0 15 -7 20
-15 6 -9 10 -10 10 -3 0 6 -4 14 -9 17 -11 7 -9 25 3 45 6 9 5 12 -5 9 -8 -3
-13 -13 -13 -22 1 -9 -2 -16 -7 -16 -5 0 -8 11 -7 24 1 14 5 23 9 20 12 -7 40
27 33 38 -4 7 -2 8 4 4 6 -4 8 -14 5 -24 -5 -16 -4 -16 13 1 17 15 17 19 4 28
-13 9 -12 10 3 5 19 -6 23 4 6 21 -8 8 -7 13 2 18 8 6 10 4 4 -5 -6 -10 -4
-12 9 -7 10 4 20 7 22 7 3 0 2 5 -1 10 -3 6 -2 10 3 10 5 0 9 7 9 15 0 9 -6
14 -14 11 -8 -3 -12 -2 -9 3 3 5 17 9 32 9 16 0 21 -3 14 -8 -7 -4 -8 -10 -4
-12 5 -3 4 -4 -2 -2 -6 1 -11 -3 -12 -9 0 -7 -3 -24 -6 -39 -4 -17 -2 -28 4
-28 6 0 9 4 5 9 -3 5 -1 12 4 16 6 3 8 12 5 19 -3 7 1 16 9 19 18 7 14 71 -5
95 -10 12 -10 14 0 8 7 -4 12 -1 12 9 0 9 -4 13 -10 10 -5 -3 -10 -2 -10 4 0
5 6 12 13 14 9 4 8 8 -3 17 -13 10 -13 11 2 6 10 -3 20 -1 23 4 6 9 -8 14 -28
11 -5 -1 -6 3 -2 8 3 6 13 7 23 4 15 -6 16 -5 2 12 -12 15 -12 17 -1 10 11 -6
13 -3 9 12 -3 12 0 20 7 20 14 0 14 -14 2 -34 -5 -8 -3 -13 5 -13 9 0 9 -3 -2
-10 -13 -8 -12 -10 3 -10 14 0 17 5 12 20 -4 13 0 23 13 31 20 12 20 13 -2 30
-11 10 -16 18 -11 19 6 0 17 -6 25 -12 12 -11 12 -10 2 4 -8 10 -9 19 -3 22 5
3 12 0 15 -6 2 -7 4 -3 2 8 -2 26 -30 56 -42 46 -5 -4 -2 1 6 12 13 16 12 20
-5 32 -10 8 -14 14 -9 14 6 0 16 -6 23 -12 11 -11 12 -9 7 8 -4 14 -1 26 11
35 11 9 14 10 9 2 -5 -9 -1 -13 13 -13 11 0 23 5 26 10 4 6 11 7 17 4 7 -4 6
-9 -2 -14 -8 -5 -8 -9 3 -13 11 -4 15 0 12 13 -2 10 3 24 11 31 8 6 14 8 14 4
0 -3 12 3 26 14 15 11 30 18 35 15 5 -3 6 3 2 12 -5 13 -3 15 8 10 8 -4 3 2
-10 13 -13 12 -18 21 -12 21 6 0 11 7 11 15 0 8 9 20 20 27 11 7 20 16 20 21
0 4 -4 6 -8 3 -23 -14 -5 28 21 50 24 20 27 27 17 37 -10 9 -11 9 -5 -2 6 -10
4 -12 -5 -6 -9 6 -11 4 -5 -5 5 -8 4 -11 -3 -6 -5 3 -13 0 -15 -6 -4 -9 -6 -9
-6 -1 -2 21 30 44 53 38 18 -5 19 -5 3 5 -9 6 -21 9 -26 5 -5 -3 -13 0 -17 6
-5 8 -3 9 6 4 10 -6 12 -4 7 8 -3 9 -1 19 5 23 7 5 8 2 3 -7 -8 -12 -6 -12 8
0 9 7 17 19 17 25 0 6 -5 4 -10 -4 -8 -13 -11 -11 -16 7 -4 13 -9 21 -13 19
-3 -2 -7 7 -7 20 -1 15 5 25 18 30 11 3 17 8 15 11 -3 2 -14 0 -25 -6 -26 -14
-37 -2 -14 16 15 11 13 12 -12 1 -15 -7 -23 -14 -17 -16 6 -2 16 -13 23 -25 9
-18 6 -17 -17 6 -15 15 -32 27 -36 27 -5 0 -9 5 -9 11 0 5 6 7 13 3 8 -5 7 -2
-2 9 -8 10 -16 15 -19 13 -7 -7 -62 26 -62 37 0 4 5 5 12 1 6 -4 8 -3 4 4 -3
5 0 13 6 15 8 4 7 6 -3 6 -9 1 -19 -6 -23 -14 -3 -8 -11 -15 -18 -15 -9 0 -8
3 2 10 8 5 11 10 6 10 -5 0 -3 7 4 15 7 8 8 15 3 15 -5 0 -9 10 -9 23 0 19 5
23 28 21 15 -1 26 2 23 7 -3 4 -12 6 -19 3 -8 -3 -17 0 -22 7 -5 8 -3 10 6 4
9 -5 11 -4 6 4 -4 6 -2 19 6 28 7 9 8 14 2 10 -7 -4 -14 2 -17 13 -4 14 0 20
11 20 14 0 15 2 3 9 -16 11 -23 51 -8 51 6 0 6 5 0 13 -5 6 -8 38 -7 70 1 31
-1 57 -5 57 -4 0 -8 17 -9 38 -3 46 -9 87 -12 87 -1 0 -3 16 -4 35 -1 19 -5
41 -10 49 -7 11 -5 13 9 7 15 -5 16 -4 5 9 -7 8 -16 12 -21 9 -5 -3 -9 -1 -9
5 0 16 23 61 31 61 4 0 6 8 5 18 -2 9 4 23 13 30 9 8 10 11 4 7 -8 -4 -13 0
-13 9 0 9 4 16 8 16 4 0 8 9 8 19 0 11 -4 17 -8 15 -4 -3 -8 4 -8 16 0 14 4
19 13 14 6 -4 3 2 -7 14 -11 12 -14 22 -8 22 7 0 12 5 12 11 0 5 -4 8 -9 4 -5
-3 -13 0 -17 6 -3 6 0 15 7 20 11 7 11 9 1 9 -9 0 -10 5 -2 19 6 12 6 22 1 26
-9 5 -11 18 -13 97 -1 15 -5 25 -9 22 -8 -5 -13 26 -12 64 1 8 -5 11 -14 8
-11 -4 -13 -2 -9 9 3 8 1 15 -5 15 -6 0 -7 5 -4 10 3 6 -1 10 -10 10 -9 0 -14
4 -10 9 3 6 -4 8 -15 6 -11 -2 -18 0 -15 6 6 9 -9 14 -30 9 -5 -1 -7 2 -3 6 5
4 -1 14 -12 21 -11 8 -17 19 -14 25 4 7 -2 8 -17 3 -20 -7 -22 -6 -12 7 10 12
10 15 -2 16 -8 1 -22 3 -30 4 -8 1 -15 6 -15 11 0 6 -3 7 -7 4 -3 -4 -12 1
-20 11 -10 11 -12 12 -8 2 4 -8 -2 -5 -13 8 -19 21 -39 31 -28 14 3 -5 -1 -9
-9 -9 -8 0 -13 5 -12 11 1 6 -4 10 -10 9 -7 -2 -13 3 -13 10 0 8 -4 7 -10 -3
-8 -12 -10 -12 -10 -1 0 8 -7 11 -19 8 -15 -4 -18 -1 -14 12 4 9 3 13 -2 9 -4
-4 -14 -3 -22 4 -11 9 -12 7 -7 -8 5 -16 2 -15 -15 5 -17 19 -21 20 -21 7 0
-10 -5 -14 -10 -11 -6 4 -7 11 -4 17 4 6 -3 5 -16 -2 -18 -10 -21 -9 -15 1 6
9 0 11 -26 6 -24 -5 -30 -4 -19 3 14 9 6 15 -15 10 -37 -8 -54 -6 -46 4 7 9 1
11 -26 8 -23 -3 -38 0 -44 9 -5 8 -9 9 -9 3 0 -14 -55 -11 -74 5 -14 11 -16
11 -16 -5 0 -15 -2 -16 -9 -5 -5 8 -16 11 -25 8 -8 -3 -18 -1 -22 5 -5 7 -2 8
6 3 8 -5 11 -4 6 3 -4 6 -13 9 -21 6 -8 -4 -13 -9 -11 -13 3 -4 -4 -7 -14 -7
-10 0 -16 5 -14 11 3 6 -5 11 -16 12 -11 1 -20 -3 -20 -8 0 -6 5 -7 12 -3 7 4
8 3 4 -5 -6 -9 -11 -9 -23 1 -18 15 -45 20 -37 7 3 -5 1 -9 -5 -9 -5 0 -11 5
-13 11 -2 7 -12 7 -31 0 -19 -8 -27 -7 -27 0 0 8 -5 7 -15 -1 -12 -10 -15 -10
-15 1 0 10 -3 10 -12 1 -9 -9 -14 -8 -22 3 -8 11 -15 12 -26 4 -13 -9 -12 -10
3 -5 10 3 15 2 12 -3 -3 -6 -14 -9 -25 -8 -10 1 -17 4 -14 8 2 4 -5 5 -17 2
-12 -3 -24 -1 -28 5 -4 7 -11 5 -19 -6z m1273 -1331 c3 -5 2 -12 -3 -15 -5 -3
-9 1 -9 9 0 17 3 19 12 6z m16 -172 c11 -5 17 -14 13 -20 -3 -6 5 -8 21 -5 22
4 25 2 15 -9 -10 -12 -17 -12 -46 2 -19 9 -34 23 -34 30 0 16 5 16 31 2z
m-1871 -39 c0 -5 -10 -14 -22 -20 -22 -10 -22 -10 -4 4 10 8 15 20 10 27 -4 8
-3 10 4 5 7 -4 12 -11 12 -16z m-183 -130 c1 -11 -1 -20 -6 -20 -15 0 -22 18
-11 25 8 5 7 12 -2 23 -10 14 -10 15 2 5 7 -7 15 -22 17 -33z m2198 30 c3 -5
1 -10 -4 -10 -6 0 -11 5 -11 10 0 6 2 10 4 10 3 0 8 -4 11 -10z m-63 -257 c-6
-2 -10 -9 -7 -14 4 -5 -2 -6 -11 -2 -11 4 -15 2 -11 -4 4 -6 0 -16 -8 -23 -8
-7 -15 -9 -15 -5 0 5 -9 0 -20 -10 -11 -10 -20 -15 -20 -10 0 4 -6 3 -13 -3
-8 -7 -18 -6 -32 5 -12 9 -14 13 -5 11 8 -3 21 2 28 11 11 14 11 14 6 -1 -7
-20 20 -19 39 2 10 10 9 12 -6 7 -11 -4 -16 -3 -12 3 4 6 14 9 23 8 9 -2 17 3
18 10 2 18 2 18 32 19 15 1 21 -1 14 -4z m-1898 -81 c3 -5 -1 -9 -9 -9 -8 0
-12 4 -9 9 3 4 7 8 9 8 2 0 6 -4 9 -8z m43 -119 c-4 -26 -17 -44 -28 -38 -5 4
-1 17 8 30 22 29 24 30 20 8z m1691 -10 c-10 -13 -13 -13 -23 1 -9 12 -15 13
-25 3 -12 -10 -12 -9 -2 4 8 10 21 14 37 11 21 -4 23 -7 13 -19z m-31 -20 c-4
-3 0 -14 9 -24 12 -13 12 -19 3 -25 -8 -4 -10 -3 -5 5 4 6 0 14 -8 17 -18 7
-22 34 -4 34 6 0 8 -3 5 -7z m-1590 -175 c-3 -8 -6 -5 -6 6 -1 11 2 17 5 13 3
-3 4 -12 1 -19z m1542 -36 c8 -14 5 -18 -12 -19 -16 -2 -18 0 -8 7 13 7 13 11
0 26 -8 11 -9 15 -2 10 7 -4 17 -15 22 -24z m-1525 -28 c3 -8 2 -12 -4 -9 -6
3 -10 10 -10 16 0 14 7 11 14 -7z m66 -119 c-10 -11 -9 -18 4 -30 21 -21 20
-25 -4 -20 -21 4 -60 24 -47 25 17 0 23 4 35 21 7 11 16 19 19 19 3 0 0 -7 -7
-15z m34 -70 c-19 -30 -18 -29 -35 -8 -12 15 -12 16 4 10 11 -4 20 -1 23 8 4
8 10 15 15 15 5 0 2 -11 -7 -25z m1241 -5 c-3 -5 -12 -10 -18 -10 -7 0 -6 4 3
10 19 12 23 12 15 0z m-1135 -54 c0 -3 -4 -8 -10 -11 -5 -3 -10 -1 -10 4 0 6
5 11 10 11 6 0 10 -2 10 -4z m27 -61 c0 -8 -4 -12 -9 -9 -5 3 -6 10 -3 15 9
13 12 11 12 -6z m1029 -82 c0 -22 -4 -29 -10 -23 -14 14 -15 57 -2 57 7 0 12
-15 12 -34z m-1039 -89 c-3 -3 -12 -4 -19 -1 -8 3 -5 6 6 6 11 1 17 -2 13 -5z
m-7 -45 c0 -5 -4 -7 -10 -4 -5 3 -10 1 -10 -4 0 -6 5 -11 10 -11 6 0 10 -5 10
-10 0 -6 -8 -5 -19 2 -15 9 -17 15 -9 25 13 16 28 17 28 2z m-98 -21 c8 8 15
7 26 -4 8 -8 21 -13 28 -10 19 7 27 -10 15 -31 -6 -10 -11 -12 -11 -5 0 6 -6
11 -12 10 -7 -2 -12 4 -10 12 2 11 -1 11 -12 -3 -9 -11 -20 -15 -31 -10 -14 5
-16 3 -10 -8 6 -11 5 -12 -6 -1 -7 6 -20 12 -28 12 -13 0 -13 -2 0 -12 8 -7
12 -12 10 -10 -2 1 -14 -6 -25 -15 -12 -10 -15 -11 -8 -3 14 16 16 34 3 25 -5
-3 -13 0 -17 6 -4 8 -3 9 4 5 6 -4 18 6 27 24 14 26 19 29 31 19 11 -9 18 -9
26 -1z m1185 -71 c-3 -7 -6 -4 -6 6 -1 11 -6 15 -13 11 -6 -4 -8 -3 -4 4 3 6
2 13 -4 17 -5 3 -10 11 -10 17 0 6 9 -1 21 -16 11 -14 18 -32 16 -39z m-1283
18 c6 -17 -2 -45 -14 -45 -12 0 -20 29 -9 35 5 4 7 11 4 16 -4 5 -2 9 3 9 6 0
12 -7 16 -15z m186 -5 c-6 -11 -15 -20 -20 -20 -6 0 -2 9 7 20 10 11 19 20 21
20 1 0 -2 -9 -8 -20z m1335 -10 c-3 -5 -12 -10 -18 -10 -7 0 -6 4 3 10 19 12
23 12 15 0z m-1652 -35 c-3 -9 -8 -14 -10 -11 -3 3 -2 9 2 15 9 16 15 13 8 -4z
m1647 -15 c0 -5 -2 -10 -4 -10 -3 0 -8 5 -11 10 -3 6 -1 10 4 10 6 0 11 -4 11
-10z m227 -56 c-9 -9 -28 6 -21 18 4 6 10 6 17 -1 6 -6 8 -13 4 -17z m-1907
12 c0 -2 -7 -7 -16 -10 -8 -3 -12 -2 -9 4 6 10 25 14 25 6z m-215 -26 c-3 -4
2 -10 10 -14 8 -3 17 -1 20 4 10 17 24 11 22 -9 -2 -26 -35 -47 -43 -26 -3 8
-10 13 -15 10 -4 -3 -6 -12 -3 -19 6 -16 -23 -16 -51 1 -16 10 -18 14 -7 25
10 10 14 9 18 -10 7 -26 26 -30 22 -4 -2 9 3 16 10 15 6 -2 12 2 12 7 0 6 -4
10 -10 10 -5 0 -7 7 -4 15 4 8 10 12 15 9 5 -3 7 -9 4 -14z m-108 -50 c-1 -11
-5 -20 -10 -20 -4 0 -6 -4 -3 -8 3 -5 -8 -16 -24 -25 -18 -11 -31 -14 -35 -7
-3 5 -11 10 -18 10 -8 0 -8 -3 1 -12 14 -14 16 -32 3 -24 -5 4 -11 1 -13 -5
-2 -6 -9 0 -16 15 -6 14 -8 25 -4 24 4 -1 22 6 41 16 24 13 36 15 41 6 4 -7
12 0 20 19 14 36 19 39 17 11z m3 -54 c0 -2 -7 -7 -16 -10 -8 -3 -12 -2 -9 4
6 10 25 14 25 6z m-243 -51 c0 -8 -4 -15 -9 -15 -10 0 -11 14 -1 23 9 10 10 9
10 -8z m-73 -51 c-3 -31 -10 -39 -19 -25 -3 6 0 11 7 11 7 1 2 8 -12 16 -14 8
-17 13 -8 10 10 -3 20 -1 23 4 10 16 12 12 9 -16z m3097 -13 c8 11 13 10 27
-7 10 -12 27 -20 39 -18 12 2 24 -3 27 -12 3 -8 2 -12 -3 -9 -6 3 -14 -3 -20
-12 -6 -11 -11 -13 -11 -5 0 7 -5 10 -10 7 -6 -4 -9 -1 -8 6 2 6 -3 14 -11 17
-10 3 -11 0 -5 -9 6 -11 5 -12 -8 -2 -8 7 -18 9 -22 5 -4 -4 -6 -1 -4 7 2 7
-3 16 -11 19 -8 3 -11 0 -7 -7 5 -7 1 -9 -9 -5 -14 6 -14 8 2 19 12 9 19 10
22 3 2 -6 7 -5 12 3z m-3344 -106 c0 -8 -4 -12 -9 -9 -5 3 -6 10 -3 15 9 13
12 11 12 -6z m-108 -158 c6 -8 8 -17 4 -20 -3 -4 0 -7 8 -7 8 -1 2 -8 -13 -16
-29 -15 -38 -30 -13 -21 8 4 17 1 21 -6 4 -7 4 -9 -1 -5 -4 4 -14 3 -20 -2 -9
-8 -14 -6 -18 4 -4 9 -2 18 4 22 7 4 6 10 -1 19 -11 13 -4 45 10 45 4 0 13 -6
19 -13z m-49 -117 c0 -5 -2 -10 -4 -10 -3 0 -8 5 -11 10 -3 6 -1 10 4 10 6 0
11 -4 11 -10z m2877 -846 c-3 -3 -12 -4 -19 -1 -8 3 -5 6 6 6 11 1 17 -2 13
-5z m-106 -13 c6 10 8 7 6 -8 -1 -17 -4 -19 -14 -11 -10 8 -13 7 -13 -2 0 -8
-2 -11 -5 -8 -3 3 -2 13 2 24 4 12 8 14 11 5 4 -11 6 -11 13 0z m-1965 -39
c-4 -3 -14 2 -24 12 -16 18 -16 18 6 6 13 -6 21 -14 18 -18z m318 19 c19 9 19
9 4 -4 -10 -8 -15 -17 -11 -20 3 -4 13 -1 21 6 12 9 16 9 19 -1 3 -6 10 -9 16
-6 7 4 4 -2 -6 -12 -11 -12 -20 -15 -25 -8 -9 14 -55 12 -73 -3 -12 -9 -14 -6
-14 18 -1 28 0 28 22 14 24 -16 31 -8 13 13 -7 9 -7 9 2 2 7 -6 19 -5 32 1z
m1231 -11 c3 -6 -1 -7 -9 -4 -18 7 -21 14 -7 14 6 0 13 -4 16 -10z m153 -8
c12 10 14 10 8 1 -4 -8 -2 -13 5 -13 10 0 10 -3 1 -12 -8 -8 -15 -8 -27 2 -12
10 -15 10 -15 -1 0 -9 -3 -10 -10 -3 -6 6 -8 19 -4 28 6 17 8 17 16 2 8 -14
12 -15 26 -4z m-1098 -8 c0 -2 -7 -4 -15 -4 -8 0 -15 4 -15 10 0 5 7 7 15 4 8
-4 15 -8 15 -10z m-410 2 c0 -3 -4 -8 -10 -11 -5 -3 -10 -1 -10 4 0 6 5 11 10
11 6 0 10 -2 10 -4z m535 -16 c-3 -5 -2 -10 4 -10 5 0 13 5 17 12 5 7 11 5 21
-7 7 -11 13 -15 13 -11 0 5 7 3 15 -4 8 -7 15 -16 15 -21 0 -14 -17 -11 -34 6
-18 18 -30 20 -20 3 6 -10 4 -10 -7 -3 -20 15 -48 12 -59 -5 -8 -13 -11 -13
-22 -1 -10 11 -10 12 0 7 7 -4 15 -1 18 9 4 9 13 14 20 11 8 -3 11 0 7 10 -3
7 0 14 7 14 6 0 8 -4 5 -10z m131 -10 c8 0 14 5 14 10 0 6 5 10 10 10 6 0 3
-12 -7 -26 -16 -25 -17 -25 -30 -8 -7 10 -13 23 -12 28 0 6 3 5 6 -1 2 -7 11
-13 19 -13z m131 5 c0 -8 -4 -12 -9 -9 -4 3 -8 9 -8 15 0 5 4 9 8 9 5 0 9 -7
9 -15z m51 -17 c19 -13 20 -17 7 -21 -10 -4 -15 0 -16 11 0 14 -2 14 -9 -3 -7
-16 -9 -17 -9 -3 -1 9 -4 25 -7 35 -3 10 -2 14 3 7 4 -5 18 -17 31 -26z m46
-4 c7 -19 -1 -18 -26 5 l-20 20 20 -6 c11 -3 23 -11 26 -19z m-454 -14 c0 -4
-6 -10 -14 -13 -12 -5 -14 2 -7 31 2 7 21 -10 21 -18z m310 4 c0 -8 -19 -13
-24 -6 -3 5 1 9 9 9 8 0 15 -2 15 -3z"/>
<path d="M3827 3509 c7 -7 15 -10 18 -7 3 3 -2 9 -12 12 -14 6 -15 5 -6 -5z"/>
<path d="M2225 2090 c-4 -6 1 -7 11 -3 13 5 15 3 9 -7 -5 -9 -4 -11 4 -6 6 4
9 12 6 17 -8 12 -22 12 -30 -1z"/>
<path d="M2275 2089 c-4 -6 -5 -12 -2 -15 2 -3 7 2 10 11 7 17 1 20 -8 4z"/>
<path d="M2155 2040 c-3 -5 -1 -10 4 -10 6 0 11 5 11 10 0 6 -2 10 -4 10 -3 0
-8 -4 -11 -10z"/>
<path d="M1825 1900 c-4 -6 -11 -8 -16 -5 -5 3 -6 -1 -3 -9 8 -21 11 -20 24 4
11 20 6 29 -5 10z"/>
<path d="M1630 1829 c0 -5 -5 -7 -12 -3 -7 4 -8 3 -4 -4 4 -6 13 -9 21 -6 8 4
12 10 9 15 -7 12 -14 11 -14 -2z"/>
<path d="M4475 1680 c4 -6 11 -8 16 -5 14 9 11 15 -7 15 -8 0 -12 -5 -9 -10z"/>
<path d="M4526 1658 c3 -5 10 -6 15 -3 13 9 11 12 -6 12 -8 0 -12 -4 -9 -9z"/>
<path d="M997 1433 c-11 -10 -8 -20 7 -26 8 -3 13 0 12 8 -3 19 -11 27 -19 18z"/>
<path d="M3676 4938 c3 -5 10 -6 15 -3 13 9 11 12 -6 12 -8 0 -12 -4 -9 -9z"/>
<path d="M3630 4880 c0 -5 5 -10 11 -10 5 0 7 5 4 10 -3 6 -8 10 -11 10 -2 0
-4 -4 -4 -10z"/>
<path d="M3706 4878 c3 -5 10 -6 15 -3 13 9 11 12 -6 12 -8 0 -12 -4 -9 -9z"/>
<path d="M3860 4686 c0 -2 8 -10 18 -17 15 -13 16 -12 3 4 -13 16 -21 21 -21
13z"/>
<path d="M1710 4640 c0 -5 5 -10 11 -10 5 0 7 5 4 10 -3 6 -8 10 -11 10 -2 0
-4 -4 -4 -10z"/>
<path d="M3799 4593 c-13 -16 -12 -17 4 -4 16 13 21 21 13 21 -2 0 -10 -8 -17
-17z"/>
<path d="M2023 4585 c0 -8 4 -12 9 -9 5 3 6 10 3 15 -9 13 -12 11 -12 -6z"/>
<path d="M1960 4549 c0 -5 5 -7 10 -4 6 3 10 8 10 11 0 2 -4 4 -10 4 -5 0 -10
-5 -10 -11z"/>
<path d="M4273 4485 c0 -8 4 -12 9 -9 5 3 6 10 3 15 -9 13 -12 11 -12 -6z"/>
<path d="M1830 4469 c0 -5 5 -7 10 -4 6 3 10 8 10 11 0 2 -4 4 -10 4 -5 0 -10
-5 -10 -11z"/>
<path d="M1970 4318 c0 -4 4 -8 9 -8 6 0 12 4 15 8 3 5 -1 9 -9 9 -8 0 -15 -4
-15 -9z"/>
<path d="M4350 4320 c0 -5 5 -10 11 -10 5 0 7 5 4 10 -3 6 -8 10 -11 10 -2 0
-4 -4 -4 -10z"/>
<path d="M4270 4296 c0 -2 8 -10 18 -17 15 -13 16 -12 3 4 -13 16 -21 21 -21
13z"/>
<path d="M1906 4254 c-5 -14 -4 -15 9 -4 17 14 19 20 6 20 -5 0 -12 -7 -15
-16z"/>
<path d="M1316 4238 c3 -5 10 -6 15 -3 13 9 11 12 -6 12 -8 0 -12 -4 -9 -9z"/>
<path d="M4550 4006 c0 -2 7 -7 16 -10 8 -3 12 -2 9 4 -6 10 -25 14 -25 6z"/>
<path d="M3855 3921 c-3 -5 -2 -12 3 -15 5 -3 9 1 9 9 0 17 -3 19 -12 6z"/>
<path d="M3836 3878 c3 -5 10 -6 15 -3 13 9 11 12 -6 12 -8 0 -12 -4 -9 -9z"/>
<path d="M1863 3838 c3 -9 1 -19 -6 -22 -9 -3 -9 -5 0 -5 18 -1 23 13 11 29
-8 12 -9 12 -5 -2z"/>
<path d="M3850 3820 c0 -5 5 -10 11 -10 5 0 7 5 4 10 -3 6 -8 10 -11 10 -2 0
-4 -4 -4 -10z"/>
<path d="M3836 3762 c-3 -5 1 -9 9 -9 8 0 12 4 9 9 -3 4 -7 8 -9 8 -2 0 -6 -4
-9 -8z"/>
<path d="M1079 3633 c-13 -16 -12 -17 4 -4 9 7 17 15 17 17 0 8 -8 3 -21 -13z"/>
<path d="M1907 3633 c3 -7 6 -13 8 -13 2 0 5 6 8 13 3 8 -1 14 -8 14 -7 0 -11
-6 -8 -14z"/>
<path d="M1908 3583 c7 -3 16 -2 19 1 4 3 -2 6 -13 5 -11 0 -14 -3 -6 -6z"/>
<path d="M3865 3540 c-3 -6 1 -7 9 -4 18 7 21 14 7 14 -6 0 -13 -4 -16 -10z"/>
<path d="M3904 3522 c4 -3 14 -7 22 -8 9 -1 13 0 10 4 -4 3 -14 7 -22 8 -9 1
-13 0 -10 -4z"/>
<path d="M1815 3503 c3 -3 0 -11 -5 -18 -7 -8 -5 -12 4 -12 14 0 16 22 3 32
-4 3 -5 2 -2 -2z"/>
<path d="M1235 3491 c-3 -5 -2 -12 3 -15 5 -3 9 1 9 9 0 17 -3 19 -12 6z"/>
<path d="M1860 3496 c0 -2 7 -7 16 -10 8 -3 12 -2 9 4 -6 10 -25 14 -25 6z"/>
<path d="M3926 3484 c-5 -14 -4 -15 9 -4 17 14 19 20 6 20 -5 0 -12 -7 -15
-16z"/>
<path d="M3995 3439 c-4 -6 -4 -13 -1 -16 3 -4 6 -1 6 6 0 7 5 9 12 5 7 -4 8
-3 4 4 -9 15 -13 15 -21 1z"/>
<path d="M1774 3429 c-3 -5 -4 -9 -2 -10 25 -6 39 -6 43 1 3 4 -4 10 -15 13
-11 3 -23 1 -26 -4z"/>
<path d="M4010 3410 c-9 -6 -10 -10 -3 -10 6 0 15 5 18 10 8 12 4 12 -15 0z"/>
<path d="M1515 3400 c-3 -5 -1 -10 4 -10 6 0 11 5 11 10 0 6 -2 10 -4 10 -3 0
-8 -4 -11 -10z"/>
<path d="M4040 3360 c8 -5 20 -10 25 -10 6 0 3 5 -5 10 -8 5 -19 10 -25 10 -5
0 -3 -5 5 -10z"/>
<path d="M4624 3362 c4 -3 14 -7 22 -8 9 -1 13 0 10 4 -4 3 -14 7 -22 8 -9 1
-13 0 -10 -4z"/>
<path d="M4016 3338 c3 -5 10 -6 15 -3 13 9 11 12 -6 12 -8 0 -12 -4 -9 -9z"/>
<path d="M4910 3326 c0 -2 7 -7 16 -10 8 -3 12 -2 9 4 -6 10 -25 14 -25 6z"/>
<path d="M834 3249 c-3 -6 -2 -15 3 -20 5 -5 9 -1 9 11 0 23 -2 24 -12 9z"/>
<path d="M3977 3249 c-20 -12 -15 -24 16 -40 l22 -10 -22 19 c-18 16 -20 21
-9 25 8 3 17 1 20 -6 3 -9 5 -9 5 0 1 18 -12 23 -32 12z"/>
<path d="M1260 3246 c0 -2 8 -10 18 -17 15 -13 16 -12 3 4 -13 16 -21 21 -21
13z"/>
<path d="M1789 3208 c-5 -18 -7 -59 -2 -48 3 8 10 20 15 27 5 7 5 14 -2 18 -5
3 -10 5 -11 3z"/>
<path d="M3958 3188 c-22 -18 -29 -45 -14 -51 9 -4 12 3 10 20 -2 18 1 23 12
19 8 -3 13 -2 9 3 -3 5 1 12 7 14 7 3 8 6 2 6 -5 1 -17 -5 -26 -11z"/>
<path d="M1731 3187 c2 -2 11 -8 20 -15 12 -9 16 -9 16 1 0 7 -9 14 -20 14
-11 1 -18 1 -16 0z"/>
<path d="M835 3169 c-4 -6 -5 -12 -2 -15 2 -3 7 2 10 11 7 17 1 20 -8 4z"/>
<path d="M1830 3122 c0 -5 -10 -14 -22 -21 -22 -11 -6 -8 27 5 10 4 15 0 15
-11 0 -9 -4 -14 -8 -11 -5 3 -9 -1 -9 -8 0 -8 10 -12 29 -10 20 3 27 0 22 -8
-4 -7 -3 -8 5 -4 8 5 3 18 -16 41 -28 33 -43 43 -43 27z"/>
<path d="M4636 3122 c-3 -5 1 -9 9 -9 8 0 12 4 9 9 -3 4 -7 8 -9 8 -2 0 -6 -4
-9 -8z"/>
<path d="M1670 3096 c0 -2 8 -10 18 -17 15 -13 16 -12 3 4 -13 16 -21 21 -21
13z"/>
<path d="M4989 3083 c-13 -16 -12 -17 4 -4 9 7 17 15 17 17 0 8 -8 3 -21 -13z"/>
<path d="M3896 3062 c-3 -5 1 -9 9 -9 8 0 12 4 9 9 -3 4 -7 8 -9 8 -2 0 -6 -4
-9 -8z"/>
<path d="M1869 3037 c6 -8 7 -18 3 -22 -4 -5 -1 -5 6 -1 10 6 10 11 1 22 -6 8
-14 14 -16 14 -3 0 0 -6 6 -13z"/>
<path d="M3764 3014 c3 -8 1 -25 -5 -36 -7 -12 -7 -18 -1 -14 6 3 12 0 15 -6
3 -10 8 -10 18 1 8 8 9 11 2 7 -17 -9 -26 11 -14 33 8 15 7 20 -5 25 -12 5
-15 2 -10 -10z"/>
<path d="M3816 2993 c-6 -14 -5 -15 5 -6 7 7 10 15 7 18 -3 3 -9 -2 -12 -12z"/>
<path d="M1986 2984 c-9 -8 -16 -21 -16 -27 0 -7 5 -5 10 5 7 11 17 14 32 10
21 -5 22 -4 9 11 -16 21 -16 21 -35 1z"/>
<path d="M1936 2982 c-3 -5 1 -9 9 -9 8 0 12 4 9 9 -3 4 -7 8 -9 8 -2 0 -6 -4
-9 -8z"/>
<path d="M1119 2953 c-13 -16 -12 -17 4 -4 9 7 17 15 17 17 0 8 -8 3 -21 -13z"/>
<path d="M1885 2960 c-3 -6 1 -7 9 -4 18 7 21 14 7 14 -6 0 -13 -4 -16 -10z"/>
<path d="M3813 2949 c-2 -23 3 -25 10 -4 4 8 3 16 -1 19 -4 3 -9 -4 -9 -15z"/>
<path d="M3793 2915 c0 -8 4 -12 9 -9 5 3 6 10 3 15 -9 13 -12 11 -12 -6z"/>
<path d="M1995 2890 c0 -16 3 -31 6 -34 3 -3 5 7 5 23 -1 16 -3 32 -6 35 -3 3
-5 -8 -5 -24z"/>
<path d="M666 2878 c3 -5 10 -6 15 -3 13 9 11 12 -6 12 -8 0 -12 -4 -9 -9z"/>
<path d="M4067 2879 c7 -7 15 -10 18 -7 3 3 -2 9 -12 12 -14 6 -15 5 -6 -5z"/>
<path d="M2075 2823 c1 -10 -2 -24 -8 -30 -5 -7 -6 -13 -1 -13 5 0 2 -4 -6
-10 -8 -5 -11 -13 -6 -17 8 -7 16 3 19 24 0 5 7 14 14 22 15 15 13 33 -4 38
-6 2 -10 -4 -8 -14z"/>
<path d="M879 2793 c-13 -16 -12 -17 4 -4 9 7 17 15 17 17 0 8 -8 3 -21 -13z"/>
<path d="M3875 2800 c-3 -5 -1 -10 4 -10 6 0 11 5 11 10 0 6 -2 10 -4 10 -3 0
-8 -4 -11 -10z"/>
<path d="M4036 2802 c-3 -5 1 -9 9 -9 8 0 12 4 9 9 -3 4 -7 8 -9 8 -2 0 -6 -4
-9 -8z"/>
<path d="M3698 2757 c-7 -14 -7 -17 1 -13 14 9 14 0 1 -24 -8 -15 -6 -17 11
-13 16 4 18 8 7 14 -11 7 -6 12 12 11 3 0 5 10 5 22 0 28 -22 30 -37 3z"/>
<path d="M4980 2766 c0 -2 8 -10 18 -17 15 -13 16 -12 3 4 -13 16 -21 21 -21
13z"/>
<path d="M2016 2733 c-6 -14 -5 -15 5 -6 7 7 10 15 7 18 -3 3 -9 -2 -12 -12z"/>
<path d="M3870 2720 c0 -5 5 -10 11 -10 5 0 7 5 4 10 -3 6 -8 10 -11 10 -2 0
-4 -4 -4 -10z"/>
<path d="M3700 2680 c0 -5 5 -10 11 -10 5 0 8 -4 5 -9 -7 -11 21 -8 31 4 4 4
2 5 -5 1 -7 -4 -15 -1 -18 8 -7 18 -24 22 -24 6z"/>
<path d="M1950 2640 c0 -5 5 -10 11 -10 5 0 7 5 4 10 -3 6 -8 10 -11 10 -2 0
-4 -4 -4 -10z"/>
<path d="M573 2595 c0 -8 4 -12 9 -9 5 3 6 10 3 15 -9 13 -12 11 -12 -6z"/>
<path d="M2070 2601 c0 -6 4 -13 10 -16 6 -3 7 1 4 9 -7 18 -14 21 -14 7z"/>
<path d="M3695 2600 c-3 -5 -1 -10 4 -10 6 0 11 5 11 10 0 6 -2 10 -4 10 -3 0
-8 -4 -11 -10z"/>
<path d="M3630 2566 c0 -21 -40 -67 -53 -59 -7 3 -9 3 -5 -2 4 -4 4 -13 -2
-19 -5 -7 -5 -17 0 -26 7 -11 10 -12 10 -2 0 7 5 10 12 6 7 -4 8 -3 4 4 -9 15
6 16 22 2 9 -7 9 -7 2 2 -14 17 -12 31 3 22 8 -5 8 -3 -2 9 -11 14 -11 17 0
21 43 14 44 14 26 15 -15 1 -16 5 -7 21 7 14 7 20 0 20 -5 0 -10 -6 -10 -14z
m-20 -59 c0 -2 -10 -12 -22 -23 l-23 -19 19 23 c18 21 26 27 26 19z"/>
<path d="M713 2555 c0 -8 4 -12 9 -9 5 3 6 10 3 15 -9 13 -12 11 -12 -6z"/>
<path d="M860 2566 c0 -2 8 -10 18 -17 15 -13 16 -12 3 4 -13 16 -21 21 -21
13z"/>
<path d="M3686 2558 c3 -5 10 -6 15 -3 13 9 11 12 -6 12 -8 0 -12 -4 -9 -9z"/>
<path d="M4870 2556 c7 -7 13 -7 20 0 6 6 3 10 -10 10 -13 0 -16 -4 -10 -10z"/>
<path d="M2115 2550 c-3 -6 1 -7 9 -4 18 7 21 14 7 14 -6 0 -13 -4 -16 -10z"/>
<path d="M3715 2551 c-3 -5 -2 -12 3 -15 5 -3 9 1 9 9 0 17 -3 19 -12 6z"/>
<path d="M919 2513 c-13 -16 -12 -17 4 -4 9 7 17 15 17 17 0 8 -8 3 -21 -13z"/>
<path d="M5353 2495 c0 -8 4 -12 9 -9 5 3 6 10 3 15 -9 13 -12 11 -12 -6z"/>
<path d="M2115 2489 c-4 -6 -5 -12 -2 -15 2 -3 7 2 10 11 7 17 1 20 -8 4z"/>
<path d="M1987 2479 c7 -7 15 -10 18 -7 3 3 -2 9 -12 12 -14 6 -15 5 -6 -5z"/>
<path d="M3646 2478 c3 -5 10 -6 15 -3 13 9 11 12 -6 12 -8 0 -12 -4 -9 -9z"/>
<path d="M3696 2482 c-3 -5 1 -9 9 -9 8 0 12 4 9 9 -3 4 -7 8 -9 8 -2 0 -6 -4
-9 -8z"/>
<path d="M3870 2479 c0 -5 5 -7 10 -4 6 3 10 8 10 11 0 2 -4 4 -10 4 -5 0 -10
-5 -10 -11z"/>
<path d="M914 2440 c0 -13 4 -16 10 -10 7 7 7 13 0 20 -6 6 -10 3 -10 -10z"/>
<path d="M839 2433 c-13 -16 -12 -17 4 -4 9 7 17 15 17 17 0 8 -8 3 -21 -13z"/>
<path d="M3506 2435 c-7 -18 10 -28 29 -18 12 7 12 10 -4 20 -15 10 -20 9 -25
-2z"/>
<path d="M4710 2441 c0 -6 4 -13 10 -16 6 -3 7 1 4 9 -7 18 -14 21 -14 7z"/>
<path d="M3673 2425 c0 -8 4 -12 9 -9 5 3 6 10 3 15 -9 13 -12 11 -12 -6z"/>
<path d="M5036 2407 c3 -10 9 -15 12 -12 3 3 0 11 -7 18 -10 9 -11 8 -5 -6z"/>
<path d="M675 2400 c-3 -5 -1 -10 4 -10 6 0 11 5 11 10 0 6 -2 10 -4 10 -3 0
-8 -4 -11 -10z"/>
<path d="M960 2400 c-9 -6 -10 -10 -3 -10 6 0 15 5 18 10 8 12 4 12 -15 0z"/>
<path d="M1030 2396 c7 -7 13 -7 20 0 6 6 3 10 -10 10 -13 0 -16 -4 -10 -10z"/>
<path d="M1956 2402 c-3 -5 1 -9 9 -9 8 0 12 4 9 9 -3 4 -7 8 -9 8 -2 0 -6 -4
-9 -8z"/>
<path d="M3536 2402 c-3 -5 1 -9 9 -9 8 0 12 4 9 9 -3 4 -7 8 -9 8 -2 0 -6 -4
-9 -8z"/>
<path d="M3916 2398 c3 -5 10 -6 15 -3 13 9 11 12 -6 12 -8 0 -12 -4 -9 -9z"/>
<path d="M2210 2386 c0 -2 7 -7 16 -10 8 -3 12 -2 9 4 -6 10 -25 14 -25 6z"/>
<path d="M3494 2383 c4 -7 2 -13 -3 -13 -6 0 -11 -4 -11 -8 0 -5 6 -9 14 -9
15 0 16 21 1 34 -4 4 -5 2 -1 -4z"/>
<path d="M3575 2381 c-3 -5 -2 -12 3 -15 5 -3 9 1 9 9 0 17 -3 19 -12 6z"/>
<path d="M916 2367 c3 -10 9 -15 12 -12 3 3 0 11 -7 18 -10 9 -11 8 -5 -6z"/>
<path d="M836 2358 c3 -5 10 -6 15 -3 13 9 11 12 -6 12 -8 0 -12 -4 -9 -9z"/>
<path d="M2276 2358 c3 -5 10 -6 15 -3 13 9 11 12 -6 12 -8 0 -12 -4 -9 -9z"/>
<path d="M3746 2362 c-3 -5 1 -9 9 -9 8 0 12 4 9 9 -3 4 -7 8 -9 8 -2 0 -6 -4
-9 -8z"/>
<path d="M4999 2353 c-13 -16 -12 -17 4 -4 9 7 17 15 17 17 0 8 -8 3 -21 -13z"/>
<path d="M2320 2350 c-12 -7 -10 -9 7 -7 12 0 19 5 17 9 -6 10 -6 10 -24 -2z"/>
<path d="M3455 2340 c3 -5 8 -10 11 -10 2 0 4 5 4 10 0 6 -5 10 -11 10 -5 0
-7 -4 -4 -10z"/>
<path d="M5115 2329 c-4 -6 -5 -12 -2 -15 2 -3 7 2 10 11 7 17 1 20 -8 4z"/>
<path d="M1986 2322 c-3 -5 1 -9 9 -9 8 0 12 4 9 9 -3 4 -7 8 -9 8 -2 0 -6 -4
-9 -8z"/>
<path d="M2316 2321 c-3 -5 2 -15 12 -22 15 -12 16 -12 5 2 -7 9 -10 19 -6 22
3 4 4 7 0 7 -3 0 -8 -4 -11 -9z"/>
<path d="M3510 2320 c0 -5 5 -10 11 -10 5 0 7 5 4 10 -3 6 -8 10 -11 10 -2 0
-4 -4 -4 -10z"/>
<path d="M3590 2320 c0 -5 5 -10 11 -10 5 0 7 5 4 10 -3 6 -8 10 -11 10 -2 0
-4 -4 -4 -10z"/>
<path d="M3873 2285 c0 -8 4 -12 9 -9 5 3 6 10 3 15 -9 13 -12 11 -12 -6z"/>
<path d="M5294 2289 c-3 -6 -2 -15 3 -20 5 -5 9 -1 9 11 0 23 -2 24 -12 9z"/>
<path d="M3450 2260 c0 -5 5 -10 11 -10 5 0 7 5 4 10 -3 6 -8 10 -11 10 -2 0
-4 -4 -4 -10z"/>
<path d="M2350 2245 c0 -8 -4 -15 -10 -15 -5 0 -10 -5 -10 -10 0 -6 7 -6 18 1
19 12 26 39 10 39 -4 0 -8 -7 -8 -15z"/>
<path d="M3573 2231 c0 -11 5 -18 9 -15 4 3 5 11 1 19 -7 21 -12 19 -10 -4z"/>
<path d="M2295 2220 c-3 -5 -1 -10 4 -10 6 0 11 5 11 10 0 6 -2 10 -4 10 -3 0
-8 -4 -11 -10z"/>
<path d="M3613 2215 c0 -8 4 -12 9 -9 5 3 6 10 3 15 -9 13 -12 11 -12 -6z"/>
<path d="M1470 2216 c0 -2 8 -10 18 -17 15 -13 16 -12 3 4 -13 16 -21 21 -21
13z"/>
<path d="M3421 2206 c-10 -11 -8 -16 9 -21 12 -4 24 -4 27 -1 4 3 -1 6 -10 6
-20 0 -23 16 -4 23 7 4 8 6 1 6 -6 1 -17 -5 -23 -13z"/>
<path d="M906 2202 c-3 -5 1 -9 9 -9 8 0 12 4 9 9 -3 4 -7 8 -9 8 -2 0 -6 -4
-9 -8z"/>
<path d="M2215 2200 c3 -5 8 -10 11 -10 2 0 4 5 4 10 0 6 -5 10 -11 10 -5 0
-7 -4 -4 -10z"/>
<path d="M2266 2182 c-3 -5 1 -9 9 -9 8 0 15 4 15 9 0 4 -4 8 -9 8 -6 0 -12
-4 -15 -8z"/>
<path d="M3475 2182 c3 -3 0 -11 -7 -19 -6 -7 -9 -15 -7 -17 2 -2 12 6 21 18
13 18 14 23 2 23 -8 0 -12 -3 -9 -5z"/>
<path d="M3519 2188 c-5 -18 -6 -38 -1 -34 7 8 12 36 6 36 -2 0 -4 -1 -5 -2z"/>
<path d="M2213 2165 c0 -8 4 -15 9 -15 4 0 8 4 8 9 0 6 -4 12 -8 15 -5 3 -9
-1 -9 -9z"/>
<path d="M2136 2153 c-6 -14 -5 -15 5 -6 7 7 10 15 7 18 -3 3 -9 -2 -12 -12z"/>
<path d="M2310 2160 c0 -5 5 -10 10 -10 6 0 10 5 10 10 0 6 -4 10 -10 10 -5 0
-10 -4 -10 -10z"/>
<path d="M905 2120 c-3 -6 1 -7 9 -4 18 7 21 14 7 14 -6 0 -13 -4 -16 -10z"/>
<path d="M2096 2122 c-3 -5 1 -9 9 -9 8 0 12 4 9 9 -3 4 -7 8 -9 8 -2 0 -6 -4
-9 -8z"/>
<path d="M2150 2121 c0 -11 29 -35 35 -29 2 2 -4 12 -15 21 -11 9 -20 13 -20
8z"/>
<path d="M3674 2116 c1 -8 5 -18 8 -22 4 -3 5 1 4 10 -1 8 -5 18 -8 22 -4 3
-5 -1 -4 -10z"/>
<path d="M3750 2120 c0 -5 5 -10 11 -10 5 0 7 5 4 10 -3 6 -8 10 -11 10 -2 0
-4 -4 -4 -10z"/>
<path d="M3584 2108 c3 -15 26 -23 26 -8 0 6 -4 9 -9 6 -5 -4 -12 -1 -14 4 -3
6 -4 5 -3 -2z"/>
<path d="M3620 2116 c0 -2 7 -7 16 -10 8 -3 12 -2 9 4 -6 10 -25 14 -25 6z"/>
<path d="M3711 2107 c-8 -10 -7 -14 2 -14 8 0 14 6 14 14 0 7 -1 13 -2 13 -2
0 -8 -6 -14 -13z"/>
<path d="M3460 2086 c0 -2 8 -10 18 -17 15 -13 16 -12 3 4 -13 16 -21 21 -21
13z"/>
<path d="M3655 2080 c3 -5 -1 -10 -9 -10 -19 0 -20 -10 -3 -34 12 -16 13 -16
13 1 1 10 4 26 9 36 4 10 3 17 -5 17 -6 0 -8 -4 -5 -10z"/>
<path d="M3750 2079 c0 -5 5 -7 10 -4 6 3 10 8 10 11 0 2 -4 4 -10 4 -5 0 -10
-5 -10 -11z"/>
<path d="M3779 2073 c-13 -16 -12 -17 4 -4 16 13 21 21 13 21 -2 0 -10 -8 -17
-17z"/>
<path d="M3950 2081 c0 -6 4 -13 10 -16 6 -3 7 1 4 9 -7 18 -14 21 -14 7z"/>
<path d="M2010 2066 c0 -3 9 -10 20 -16 11 -6 20 -8 20 -6 0 3 -9 10 -20 16
-11 6 -20 8 -20 6z"/>
<path d="M3852 2059 c2 -7 -2 -13 -9 -14 -7 0 -18 -7 -25 -15 -11 -12 -11 -12
3 -2 9 6 18 10 21 7 3 -3 11 1 17 9 8 10 9 16 1 21 -6 4 -9 1 -8 -6z"/>
<path d="M1859 2033 c-13 -16 -12 -17 4 -4 9 7 17 15 17 17 0 8 -8 3 -21 -13z"/>
<path d="M1934 2034 c1 -8 6 -17 11 -21 4 -4 5 -2 1 5 -4 6 -2 12 3 12 6 0 11
4 11 8 0 5 -6 9 -14 9 -7 0 -13 -6 -12 -13z"/>
<path d="M4550 2039 c0 -5 5 -7 10 -4 6 3 10 8 10 11 0 2 -4 4 -10 4 -5 0 -10
-5 -10 -11z"/>
<path d="M2010 2030 c-9 -6 -10 -10 -3 -10 6 0 15 5 18 10 8 12 4 12 -15 0z"/>
<path d="M3830 2010 c-8 -5 -10 -10 -5 -10 6 0 17 5 25 10 8 5 11 10 5 10 -5
0 -17 -5 -25 -10z"/>
<path d="M3880 2006 c7 -7 13 -7 20 0 6 6 3 10 -10 10 -13 0 -16 -4 -10 -10z"/>
<path d="M1770 2001 c0 -6 4 -13 10 -16 6 -3 7 1 4 9 -7 18 -14 21 -14 7z"/>
<path d="M1839 1993 c-13 -16 -12 -17 4 -4 9 7 17 15 17 17 0 8 -8 3 -21 -13z"/>
<path d="M4010 1999 c0 -5 5 -7 10 -4 6 3 10 8 10 11 0 2 -4 4 -10 4 -5 0 -10
-5 -10 -11z"/>
<path d="M4636 2002 c-3 -5 1 -9 9 -9 8 0 12 4 9 9 -3 4 -7 8 -9 8 -2 0 -6 -4
-9 -8z"/>
<path d="M5070 2000 c0 -5 5 -10 11 -10 5 0 7 5 4 10 -3 6 -8 10 -11 10 -2 0
-4 -4 -4 -10z"/>
<path d="M3845 1990 c-3 -6 1 -7 9 -4 18 7 21 14 7 14 -6 0 -13 -4 -16 -10z"/>
<path d="M1696 1978 c3 -5 10 -6 15 -3 13 9 11 12 -6 12 -8 0 -12 -4 -9 -9z"/>
<path d="M3734 1982 c4 -3 14 -7 22 -8 9 -1 13 0 10 4 -4 3 -14 7 -22 8 -9 1
-13 0 -10 -4z"/>
<path d="M4055 1981 c-3 -5 -2 -12 3 -15 5 -3 9 1 9 9 0 17 -3 19 -12 6z"/>
<path d="M4095 1981 c-3 -5 -2 -12 3 -15 5 -3 9 1 9 9 0 17 -3 19 -12 6z"/>
<path d="M1756 1967 c3 -10 9 -15 12 -12 3 3 0 11 -7 18 -10 9 -11 8 -5 -6z"/>
<path d="M1733 1951 c0 -11 5 -18 9 -15 4 3 5 11 1 19 -7 21 -12 19 -10 -4z"/>
<path d="M3991 1954 c0 -11 3 -14 6 -6 3 7 2 16 -1 19 -3 4 -6 -2 -5 -13z"/>
<path d="M4147 1959 c7 -7 15 -10 18 -7 3 3 -2 9 -12 12 -14 6 -15 5 -6 -5z"/>
<path d="M4037 1953 c-10 -9 -9 -23 1 -23 5 0 9 7 9 15 0 17 -1 18 -10 8z"/>
<path d="M1629 1923 c-13 -16 -12 -17 4 -4 9 7 17 15 17 17 0 8 -8 3 -21 -13z"/>
<path d="M4123 1922 c10 -10 14 -22 10 -27 -5 -4 -2 -5 5 -1 11 6 10 12 -4 27
-9 10 -19 19 -22 19 -3 0 2 -8 11 -18z"/>
<path d="M4067 1913 c3 -7 6 -13 8 -13 1 0 7 6 13 13 8 10 6 13 -7 13 -11 0
-17 -6 -14 -13z"/>
<path d="M4156 1918 c3 -5 10 -6 15 -3 13 9 11 12 -6 12 -8 0 -12 -4 -9 -9z"/>
<path d="M1490 1900 c0 -5 5 -10 11 -10 5 0 7 5 4 10 -3 6 -8 10 -11 10 -2 0
-4 -4 -4 -10z"/>
<path d="M1584 1902 c4 -3 14 -7 22 -8 9 -1 13 0 10 4 -4 3 -14 7 -22 8 -9 1
-13 0 -10 -4z"/>
<path d="M4250 1899 c0 -5 5 -7 10 -4 6 3 10 8 10 11 0 2 -4 4 -10 4 -5 0 -10
-5 -10 -11z"/>
<path d="M1620 1880 c-12 -7 -10 -9 8 -7 12 0 22 5 22 9 0 11 -12 10 -30 -2z"/>
<path d="M1575 1871 c-3 -5 0 -13 6 -17 7 -4 9 -3 5 4 -3 5 0 13 6 15 9 4 10
6 1 6 -6 1 -14 -3 -18 -8z"/>
<path d="M4217 1859 c7 -7 15 -10 18 -7 3 3 -2 9 -12 12 -14 6 -15 5 -6 -5z"/>
<path d="M1399 1843 c0 -5 -2 -16 -4 -26 -2 -11 -1 -16 3 -13 8 8 14 46 7 46
-3 0 -5 -3 -6 -7z"/>
<path d="M1470 1835 c0 -8 2 -15 4 -15 2 0 6 7 10 15 3 8 1 15 -4 15 -6 0 -10
-7 -10 -15z"/>
<path d="M4290 1836 c0 -8 4 -17 9 -20 5 -4 7 3 4 14 -6 23 -13 26 -13 6z"/>
<path d="M4910 1839 c0 -5 5 -7 10 -4 6 3 10 8 10 11 0 2 -4 4 -10 4 -5 0 -10
-5 -10 -11z"/>
<path d="M4310 1836 c0 -2 7 -9 15 -16 13 -11 14 -10 9 4 -5 14 -24 23 -24 12z"/>
<path d="M1359 1828 c-7 -23 -4 -35 7 -35 9 0 11 4 4 12 -5 7 -7 15 -3 18 3 4
3 7 0 7 -4 0 -7 -1 -8 -2z"/>
<path d="M4450 1819 c0 -5 5 -7 10 -4 6 3 10 8 10 11 0 2 -4 4 -10 4 -5 0 -10
-5 -10 -11z"/>
<path d="M439 1818 c-5 -18 -6 -38 -1 -34 7 8 12 36 6 36 -2 0 -4 -1 -5 -2z"/>
<path d="M5174 1809 c-3 -6 -2 -15 3 -20 5 -5 9 -1 9 11 0 23 -2 24 -12 9z"/>
<path d="M1219 1808 c-5 -18 -6 -38 -1 -34 7 8 12 36 6 36 -2 0 -4 -1 -5 -2z"/>
<path d="M4406 1802 c-3 -5 1 -9 9 -9 8 0 12 4 9 9 -3 4 -7 8 -9 8 -2 0 -6 -4
-9 -8z"/>
<path d="M1390 1780 c0 -5 5 -10 10 -10 6 0 10 5 10 10 0 6 -4 10 -10 10 -5 0
-10 -4 -10 -10z"/>
<path d="M4516 1778 c3 -5 10 -6 15 -3 13 9 11 12 -6 12 -8 0 -12 -4 -9 -9z"/>
<path d="M4301 1767 c-6 -8 -8 -17 -4 -20 7 -8 33 11 33 24 0 13 -16 11 -29
-4z"/>
<path d="M995 1760 c-3 -5 -1 -10 4 -10 6 0 11 5 11 10 0 6 -2 10 -4 10 -3 0
-8 -4 -11 -10z"/>
<path d="M4440 1760 c-8 -5 -10 -10 -5 -10 6 0 17 5 25 10 8 5 11 10 5 10 -5
0 -17 -5 -25 -10z"/>
<path d="M1400 1730 c-9 -6 -10 -10 -3 -10 6 0 15 5 18 10 8 12 4 12 -15 0z"/>
<path d="M4540 1731 c0 -7 -4 -9 -10 -6 -6 4 -7 -1 -3 -11 6 -15 7 -15 15 1 6
9 7 19 4 22 -3 4 -6 1 -6 -6z"/>
<path d="M1115 1721 c-3 -5 -2 -12 3 -15 5 -3 9 1 9 9 0 17 -3 19 -12 6z"/>
<path d="M1236 1718 c3 -4 9 -8 15 -8 5 0 9 4 9 8 0 5 -7 9 -15 9 -8 0 -12 -4
-9 -9z"/>
<path d="M4650 1700 c0 -5 5 -10 11 -10 5 0 7 5 4 10 -3 6 -8 10 -11 10 -2 0
-4 -4 -4 -10z"/>
<path d="M4610 1696 c0 -2 8 -10 18 -17 15 -13 16 -12 3 4 -13 16 -21 21 -21
13z"/>
<path d="M1137 1671 c-4 -17 -3 -21 5 -13 5 5 8 16 6 23 -3 8 -7 3 -11 -10z"/>
<path d="M4591 1674 c0 -11 3 -14 6 -6 3 7 2 16 -1 19 -3 4 -6 -2 -5 -13z"/>
<path d="M4686 1658 c3 -5 10 -6 15 -3 13 9 11 12 -6 12 -8 0 -12 -4 -9 -9z"/>
<path d="M4658 1620 c-14 -10 -29 -16 -33 -12 -4 4 -2 -3 6 -15 12 -21 14 -21
23 -5 5 9 9 19 7 20 -1 2 6 10 16 18 10 7 15 14 12 14 -4 0 -18 -9 -31 -20z"/>
<path d="M1070 1610 c-8 -5 -10 -10 -5 -10 6 0 17 5 25 10 8 5 11 10 5 10 -5
0 -17 -5 -25 -10z"/>
<path d="M4693 1605 c-3 -9 -3 -18 -1 -21 3 -3 8 4 11 16 6 23 -1 27 -10 5z"/>
<path d="M976 1573 c-4 -9 -3 -20 1 -24 4 -4 9 3 9 17 2 28 -1 31 -10 7z"/>
<path d="M1030 1580 c0 -5 5 -10 10 -10 6 0 10 5 10 10 0 6 -4 10 -10 10 -5 0
-10 -4 -10 -10z"/>
<path d="M4665 1581 c-3 -5 -1 -12 5 -16 6 -4 7 -12 4 -18 -4 -7 -1 -6 7 2 11
10 11 15 1 18 -6 3 -10 9 -6 14 3 5 3 9 0 9 -3 0 -7 -4 -11 -9z"/>
<path d="M4710 1586 c0 -2 7 -7 16 -10 8 -3 12 -2 9 4 -6 10 -25 14 -25 6z"/>
<path d="M4745 1560 c-3 -5 -1 -10 5 -10 6 0 8 -6 4 -12 -4 -7 -3 -9 1 -5 12
10 15 37 5 37 -5 0 -12 -4 -15 -10z"/>
<path d="M4793 1546 c0 -15 22 -15 34 0 4 5 4 6 -1 2 -5 -4 -14 -3 -21 2 -8 7
-12 5 -12 -4z"/>
<path d="M993 1513 c0 -7 4 -13 8 -13 4 0 9 6 12 13 3 8 0 14 -7 14 -7 0 -13
-6 -13 -14z"/>
<path d="M4758 1503 c7 -3 16 -2 19 1 4 3 -2 6 -13 5 -11 0 -14 -3 -6 -6z"/>
<path d="M937 1479 c7 -7 15 -10 18 -7 3 3 -2 9 -12 12 -14 6 -15 5 -6 -5z"/>
<path d="M970 1478 c0 -3 9 -6 20 -5 11 1 20 5 20 9 0 3 -9 6 -20 5 -11 -1
-20 -5 -20 -9z"/>
<path d="M4744 1474 c1 -9 11 -21 21 -26 13 -8 16 -7 11 1 -4 7 -2 18 4 26 7
8 9 15 5 15 -4 0 -14 -8 -21 -17 -13 -17 -14 -17 -8 0 3 9 2 17 -4 17 -6 0 -9
-7 -8 -16z"/>
<path d="M880 1460 c-12 -7 -10 -9 7 -7 12 0 19 5 17 9 -6 10 -6 10 -24 -2z"/>
<path d="M4793 1443 c0 -27 0 -26 15 3 8 16 8 21 -2 21 -8 0 -13 -11 -13 -24z"/>
<path d="M4834 1422 c-1 -26 1 -41 3 -34 3 6 10 9 16 5 8 -5 8 -2 0 8 -7 9
-11 25 -8 37 2 12 1 24 -3 26 -4 2 -8 -17 -8 -42z"/>
<path d="M941 1443 c11 -19 15 -20 22 -7 5 9 6 18 3 21 -3 4 -6 1 -6 -7 0 -10
-3 -10 -17 1 -15 13 -15 12 -2 -8z"/>
<path d="M855 1341 c-3 -5 -2 -12 3 -15 5 -3 9 1 9 9 0 17 -3 19 -12 6z"/>
<path d="M793 1325 c0 -8 4 -12 9 -9 5 3 6 10 3 15 -9 13 -12 11 -12 -6z"/>
<path d="M889 1323 c-8 -9 -9 -14 -2 -10 6 4 13 1 16 -5 3 -7 4 -3 4 10 -1 26
-1 26 -18 5z"/>
<path d="M4824 1278 l-19 -23 23 19 c21 18 27 26 19 26 -2 0 -12 -10 -23 -22z"/>
<path d="M980 1279 c0 -5 5 -7 10 -4 6 3 10 8 10 11 0 2 -4 4 -10 4 -5 0 -10
-5 -10 -11z"/>
<path d="M876 1262 c-3 -5 1 -9 9 -9 8 0 12 4 9 9 -3 4 -7 8 -9 8 -2 0 -6 -4
-9 -8z"/>
<path d="M4830 1257 c-8 -7 -16 -18 -18 -26 -4 -18 25 -61 41 -61 6 0 4 5 -5
11 -10 5 -18 15 -18 21 0 9 3 9 12 0 7 -7 16 -12 20 -12 4 0 -1 9 -12 20 -11
11 -20 26 -20 33 0 6 8 2 18 -10 l17 -23 0 24 c0 16 -4 22 -14 18 -9 -3 -12
-1 -7 6 9 15 5 15 -14 -1z"/>
<path d="M626 1198 c3 -5 10 -6 15 -3 13 9 11 12 -6 12 -8 0 -12 -4 -9 -9z"/>
<path d="M4886 1178 c3 -5 10 -6 15 -3 13 9 11 12 -6 12 -8 0 -12 -4 -9 -9z"/>
<path d="M897 1161 c-3 -13 -1 -18 9 -14 7 2 10 11 7 19 -7 19 -10 18 -16 -5z"/>
<path d="M4860 1160 c-9 -6 -10 -10 -3 -10 6 0 15 5 18 10 8 12 4 12 -15 0z"/>
<path d="M4846 1115 c9 -14 18 -25 20 -25 2 0 -2 11 -8 25 -6 14 -15 25 -20
25 -5 0 -1 -11 8 -25z"/>
<path d="M853 1056 c-3 -6 -3 -8 2 -4 4 4 13 3 20 -2 8 -7 12 -5 12 3 0 16
-25 18 -34 3z"/>
<path d="M937 1059 c-12 -7 -16 -17 -12 -30 4 -11 2 -19 -4 -19 -6 0 -11 -4
-11 -8 0 -5 7 -9 15 -9 8 0 13 2 10 5 -2 3 0 14 6 25 8 14 8 18 0 13 -18 -11
-13 6 7 20 20 16 14 18 -11 3z"/>
<path d="M855 1020 c3 -5 8 -10 11 -10 2 0 4 5 4 10 0 6 -5 10 -11 10 -5 0 -7
-4 -4 -10z"/>
<path d="M785 1000 c-3 -6 1 -7 9 -4 18 7 21 14 7 14 -6 0 -13 -4 -16 -10z"/>
<path d="M855 980 c-3 -5 -1 -10 4 -10 6 0 11 5 11 10 0 6 -2 10 -4 10 -3 0
-8 -4 -11 -10z"/>
<path d="M897 951 c-4 -17 -3 -21 5 -13 5 5 8 16 6 23 -3 8 -7 3 -11 -10z"/>
<path d="M4950 959 c0 -5 5 -7 10 -4 6 3 10 8 10 11 0 2 -4 4 -10 4 -5 0 -10
-5 -10 -11z"/>
<path d="M875 950 c-4 -6 -11 -7 -17 -4 -7 4 -8 2 -4 -5 6 -9 11 -9 22 0 14
11 18 19 10 19 -3 0 -8 -5 -11 -10z"/>
<path d="M900 915 c-11 -13 -10 -14 4 -9 9 3 16 10 16 15 0 13 -6 11 -20 -6z"/>
<path d="M851 833 c7 -12 15 -20 18 -17 3 2 -3 12 -13 22 -17 16 -18 16 -5 -5z"/>
<path d="M856 773 c-6 -14 -5 -15 5 -6 7 7 10 15 7 18 -3 3 -9 -2 -12 -12z"/>
<path d="M916 642 c-3 -5 1 -9 9 -9 8 0 12 4 9 9 -3 4 -7 8 -9 8 -2 0 -6 -4
-9 -8z"/>
<path d="M960 646 c0 -2 7 -7 16 -10 8 -3 12 -2 9 4 -6 10 -25 14 -25 6z"/>
<path d="M4682 631 c-11 -7 -11 -9 2 -14 10 -4 13 -13 10 -24 -4 -11 -3 -14 3
-7 4 6 16 10 26 8 9 -1 14 2 11 8 -3 5 -8 7 -11 4 -7 -7 -32 17 -26 27 5 9 1
9 -15 -2z"/>
<path d="M950 626 c0 -2 7 -7 16 -10 8 -3 12 -2 9 4 -6 10 -25 14 -25 6z"/>
<path d="M1062 601 c20 -26 22 -27 15 -8 -5 13 -2 17 11 15 9 -2 21 -7 25 -13
5 -6 7 -4 4 5 -2 9 -17 15 -35 16 -28 1 -31 -1 -20 -15z"/>
<path d="M1035 591 c-3 -5 -2 -12 3 -15 5 -3 9 1 9 9 0 17 -3 19 -12 6z"/>
<path d="M1097 569 c4 -13 8 -18 11 -10 2 7 -1 18 -6 23 -8 8 -9 4 -5 -13z"/>
<path d="M1230 580 c0 -5 5 -10 11 -10 8 0 7 -5 -1 -16 -11 -12 -10 -18 3 -30
9 -8 12 -9 7 -2 -15 18 -12 32 4 19 10 -9 15 -8 19 3 4 9 -4 21 -19 30 -13 9
-24 12 -24 6z"/>
<path d="M4540 580 c0 -5 5 -10 11 -10 5 0 7 5 4 10 -3 6 -8 10 -11 10 -2 0
-4 -4 -4 -10z"/>
<path d="M4776 578 c3 -5 10 -6 15 -3 13 9 11 12 -6 12 -8 0 -12 -4 -9 -9z"/>
<path d="M4576 567 c3 -10 9 -15 12 -12 3 3 0 11 -7 18 -10 9 -11 8 -5 -6z"/>
<path d="M4630 571 c0 -7 -4 -10 -8 -7 -5 3 -9 -2 -9 -10 0 -13 2 -13 16 0 8
9 12 19 8 22 -4 4 -7 2 -7 -5z"/>
<path d="M4391 557 c-6 -8 -22 -13 -36 -11 -14 1 -25 -2 -25 -8 0 -7 -5 -7
-12 -1 -11 8 -33 10 -40 3 -2 -1 -11 -3 -21 -5 -28 -5 -31 -12 -12 -32 17 -16
17 -16 10 7 -7 23 -7 24 10 10 14 -12 19 -12 22 -2 3 6 9 9 14 6 6 -3 5 -11
-2 -20 -6 -8 -8 -14 -4 -14 4 0 15 10 25 23 19 22 19 22 35 2 16 -20 16 -20 5
3 -6 12 -8 22 -5 22 8 0 44 -38 39 -42 -2 -3 3 -5 11 -5 10 0 12 4 6 10 -5 5
-7 17 -4 26 4 14 3 14 -6 1 -5 -8 -13 -12 -16 -8 -3 3 2 13 11 22 9 9 14 19
12 22 -3 2 -10 -2 -17 -9z"/>
<path d="M1289 544 c-8 -10 -8 -14 0 -14 6 0 11 5 11 11 0 5 5 7 10 4 6 -4 7
-11 4 -17 -4 -7 -2 -8 5 -4 6 4 19 2 28 -6 13 -10 17 -10 20 0 3 6 8 10 12 8
4 -3 13 0 21 6 13 8 12 9 -2 5 -9 -3 -19 -3 -22 1 -4 3 -12 7 -19 8 -7 2 -22
5 -34 8 -12 2 -27 -2 -34 -10z m81 -10 c0 -8 -19 -13 -24 -6 -3 5 1 9 9 9 8 0
15 -2 15 -3z"/>
<path d="M4562 544 c10 -10 20 -16 22 -13 3 3 -5 11 -17 18 -21 13 -21 12 -5
-5z"/>
<path d="M4653 545 c0 -8 4 -12 9 -9 5 3 6 10 3 15 -9 13 -12 11 -12 -6z"/>
<path d="M4497 529 c7 -7 15 -10 18 -7 3 3 -2 9 -12 12 -14 6 -15 5 -6 -5z"/>
<path d="M4196 515 c-5 -14 -9 -15 -20 -5 -11 9 -21 8 -43 -4 -16 -9 -22 -16
-13 -16 8 -1 23 -3 33 -5 9 -2 17 0 17 4 0 4 7 8 15 8 9 0 14 -6 11 -14 -3 -7
-2 -13 3 -13 12 0 20 35 11 50 -5 8 -9 7 -14 -5z m-26 -9 c0 -2 -7 -7 -16 -10
-8 -3 -12 -2 -9 4 6 10 25 14 25 6z"/>
<path d="M1308 503 c9 -3 10 -9 3 -17 -8 -9 -7 -13 4 -13 7 0 13 5 12 11 -1 6
5 10 13 8 8 -2 12 0 7 4 -4 4 -18 9 -30 10 -12 2 -16 0 -9 -3z"/>
<path d="M4334 502 c3 -5 0 -13 -6 -15 -9 -4 -10 -6 -1 -6 17 -1 25 16 12 25
-7 4 -9 3 -5 -4z"/>
<path d="M1273 485 c0 -8 4 -12 9 -9 5 3 6 10 3 15 -9 13 -12 11 -12 -6z"/>
<path d="M4047 483 c3 -7 -2 -13 -10 -13 -8 0 -18 6 -20 13 -4 10 -6 10 -6 0
-1 -7 -6 -13 -12 -13 -5 0 -7 6 -3 13 5 8 2 8 -9 -2 -13 -10 -17 -11 -17 -1 0
9 -5 8 -18 -3 -10 -10 -22 -14 -26 -10 -3 4 -13 8 -21 9 -12 2 -11 -3 3 -22
16 -22 40 -35 27 -14 -3 6 -2 10 3 10 13 0 20 -19 17 -47 -1 -12 2 -20 7 -17
8 5 5 35 -7 67 -4 9 -3 17 3 17 6 0 12 -5 14 -11 3 -9 10 -9 27 1 21 11 23 10
18 -4 -6 -15 -4 -15 17 0 28 18 40 41 21 41 -7 0 -11 -6 -8 -14z"/>
<path d="M4267 487 c-3 -8 1 -14 8 -14 7 0 11 6 8 14 -3 7 -6 13 -8 13 -2 0
-5 -6 -8 -13z"/>
<path d="M1435 480 c-4 -6 1 -7 11 -3 13 5 15 3 9 -7 -5 -9 -4 -11 4 -6 6 4 9
12 6 17 -8 12 -22 12 -30 -1z"/>
<path d="M1495 480 c-3 -5 -1 -10 4 -10 6 0 11 5 11 10 0 6 -2 10 -4 10 -3 0
-8 -4 -11 -10z"/>
<path d="M1627 483 c-3 -5 -2 -15 4 -23 13 -22 11 -42 -3 -34 -7 4 -9 3 -5 -1
4 -5 14 -10 21 -11 11 -1 12 5 6 27 -5 16 -9 32 -9 35 1 11 -9 15 -14 7z"/>
<path d="M1669 479 c-5 -31 -7 -51 -3 -41 3 6 10 10 15 6 5 -3 6 -11 2 -17
-11 -18 -12 -38 -2 -31 5 3 7 9 4 14 -3 5 -1 12 5 15 8 5 7 12 -2 22 -7 9 -11
18 -10 20 2 3 1 7 -2 11 -3 3 -6 3 -7 1z"/>
<path d="M4139 468 c-5 -16 -4 -50 1 -53 4 -3 7 6 6 18 -1 12 3 25 9 29 6 5 6
8 -2 8 -7 0 -13 -1 -14 -2z"/>
<path d="M4313 455 c0 -8 4 -12 9 -9 5 3 6 10 3 15 -9 13 -12 11 -12 -6z"/>
<path d="M1416 447 c3 -10 9 -15 12 -12 3 3 0 11 -7 18 -10 9 -11 8 -5 -6z"/>
<path d="M1477 453 c-10 -9 -9 -23 1 -23 5 0 9 7 9 15 0 17 -1 18 -10 8z"/>
<path d="M1577 445 c-4 -8 -3 -16 1 -19 4 -3 9 4 9 15 2 23 -3 25 -10 4z"/>
<path d="M4092 436 c1 -14 5 -23 9 -20 7 4 0 44 -7 44 -2 0 -3 -11 -2 -24z"/>
<path d="M1305 440 c-3 -6 1 -7 9 -4 18 7 21 14 7 14 -6 0 -13 -4 -16 -10z"/>
<path d="M1356 433 c-6 -14 -5 -15 5 -6 7 7 10 15 7 18 -3 3 -9 -2 -12 -12z"/>
<path d="M4036 442 c-3 -5 1 -9 9 -9 8 0 15 4 15 9 0 4 -4 8 -9 8 -6 0 -12 -4
-15 -8z"/>
<path d="M3527 434 c-3 -4 -4 -18 0 -32 4 -17 2 -23 -6 -18 -6 4 -11 3 -11 -3
0 -5 9 -9 20 -8 14 1 18 6 15 17 -3 11 0 17 10 17 8 0 15 -3 15 -7 0 -4 11
-12 25 -18 21 -10 26 -9 34 7 8 14 6 23 -8 35 -13 12 -21 14 -26 6 -3 -5 -10
-8 -15 -5 -5 3 -12 0 -15 -5 -5 -7 -11 -6 -19 5 -6 9 -15 13 -19 9z m96 -40
c-4 -10 -10 -11 -23 -4 -28 15 -33 29 -8 22 16 -4 19 -2 13 9 -7 12 -6 12 7 1
9 -8 14 -20 11 -28z"/>
<path d="M4175 431 c-3 -5 -2 -12 3 -15 5 -3 9 1 9 9 0 17 -3 19 -12 6z"/>
<path d="M4000 420 c-9 -6 -10 -10 -3 -10 6 0 15 5 18 10 8 12 4 12 -15 0z"/>
<path d="M1715 410 c3 -5 8 -10 11 -10 2 0 4 5 4 10 0 6 -5 10 -11 10 -5 0 -7
-4 -4 -10z"/>
<path d="M4056 407 c3 -10 9 -15 12 -12 3 3 0 11 -7 18 -10 9 -11 8 -5 -6z"/>
<path d="M1786 401 c-4 -5 3 -7 14 -4 23 6 26 13 6 13 -8 0 -17 -4 -20 -9z"/>
<path d="M2226 394 c-7 -19 15 -39 25 -22 4 7 9 6 14 -2 4 -7 1 -17 -6 -22
-12 -8 -11 -9 1 -5 8 2 15 10 15 18 0 8 4 21 9 29 7 12 6 13 -4 3 -11 -10 -17
-10 -31 3 -15 13 -17 13 -23 -2z"/>
<path d="M3710 400 c0 -5 7 -7 15 -4 8 4 15 8 15 10 0 2 -7 4 -15 4 -8 0 -15
-4 -15 -10z"/>
<path d="M3873 391 c0 -11 5 -18 9 -15 4 3 5 11 1 19 -7 21 -12 19 -10 -4z"/>
<path d="M3093 385 c0 -8 4 -12 9 -9 4 3 13 -6 20 -20 6 -14 16 -26 21 -26 5
0 4 6 -2 14 -6 8 -10 20 -9 27 2 7 -1 13 -7 14 -5 0 -15 3 -21 7 -6 4 -11 1
-11 -7z"/>
<path d="M3777 393 c-3 -5 6 -9 20 -10 19 -1 22 1 12 8 -17 11 -26 11 -32 2z"/>
<path d="M1873 375 c0 -8 4 -12 9 -9 5 3 6 10 3 15 -9 13 -12 11 -12 -6z"/>
<path d="M2926 382 c-3 -5 1 -9 9 -9 8 0 12 4 9 9 -3 4 -7 8 -9 8 -2 0 -6 -4
-9 -8z"/>
<path d="M3631 367 c-13 -21 -12 -21 5 -5 10 10 16 20 13 22 -3 3 -11 -5 -18
-17z"/>
<path d="M3564 369 c1 -7 10 -13 19 -15 9 -1 15 2 11 7 -3 5 -9 7 -14 4 -4 -3
-11 0 -13 5 -3 6 -4 5 -3 -1z"/>
<path d="M1626 362 c-3 -5 1 -9 9 -9 8 0 12 4 9 9 -3 4 -7 8 -9 8 -2 0 -6 -4
-9 -8z"/>
<path d="M1966 358 c3 -5 10 -6 15 -3 13 9 11 12 -6 12 -8 0 -12 -4 -9 -9z"/>
<path d="M2190 360 c0 -5 5 -10 10 -10 6 0 10 5 10 10 0 6 -4 10 -10 10 -5 0
-10 -4 -10 -10z"/>
<path d="M3356 354 c-5 -14 -4 -15 9 -4 17 14 19 20 6 20 -5 0 -12 -7 -15 -16z"/>
<path d="M3836 358 c3 -5 10 -6 15 -3 13 9 11 12 -6 12 -8 0 -12 -4 -9 -9z"/>
<path d="M4030 360 c0 -5 5 -10 11 -10 5 0 7 5 4 10 -3 6 -8 10 -11 10 -2 0
-4 -4 -4 -10z"/>
<path d="M3653 345 c0 -8 4 -12 9 -9 5 3 6 10 3 15 -9 13 -12 11 -12 -6z"/>
<path d="M1790 340 c0 -5 5 -10 11 -10 5 0 7 5 4 10 -3 6 -8 10 -11 10 -2 0
-4 -4 -4 -10z"/>
<path d="M1993 333 c0 -9 4 -10 14 -2 7 6 13 12 13 14 0 1 -6 2 -13 2 -8 0
-14 -6 -14 -14z"/>
<path d="M2293 343 c4 -6 2 -13 -5 -15 -8 -3 -6 -6 4 -10 17 -7 19 15 3 29 -4
4 -5 3 -2 -4z"/>
<path d="M3215 341 c6 -10 4 -13 -7 -9 -8 4 -20 -3 -28 -15 -12 -20 -12 -21 3
-8 9 7 23 11 31 8 15 -6 16 17 1 30 -4 5 -5 2 0 -6z"/>
<path d="M3394 336 c1 -8 5 -18 8 -22 4 -3 5 1 4 10 -1 8 -5 18 -8 22 -4 3 -5
-1 -4 -10z"/>
<path d="M3750 345 c0 -7 30 -13 34 -7 3 4 -4 9 -15 9 -10 1 -19 0 -19 -2z"/>
<path d="M2350 336 c0 -2 8 -10 18 -17 15 -13 16 -12 3 4 -13 16 -21 21 -21
13z"/>
<path d="M2541 333 c-1 -17 16 -25 25 -12 4 7 3 9 -4 5 -5 -3 -13 0 -15 6 -4
9 -6 10 -6 1z"/>
<path d="M2840 336 c0 -2 7 -7 16 -10 8 -3 12 -2 9 4 -6 10 -25 14 -25 6z"/>
<path d="M2991 324 c0 -11 3 -14 6 -6 3 7 2 16 -1 19 -3 4 -6 -2 -5 -13z"/>
<path d="M3021 318 c-13 -21 -13 -22 2 -9 14 11 20 11 34 0 15 -13 15 -12 2 9
-8 12 -16 22 -19 22 -3 0 -11 -10 -19 -22z"/>
<path d="M3156 323 c-6 -14 -5 -15 5 -6 7 7 10 15 7 18 -3 3 -9 -2 -12 -12z"/>
<path d="M3371 324 c0 -11 3 -14 6 -6 3 7 2 16 -1 19 -3 4 -6 -2 -5 -13z"/>
<path d="M2395 320 c-3 -6 1 -7 9 -4 18 7 21 14 7 14 -6 0 -13 -4 -16 -10z"/>
<path d="M2584 315 c-18 -14 -18 -14 4 -8 12 3 22 9 22 14 0 12 -3 11 -26 -6z"/>
<path d="M2746 321 c-4 -5 3 -7 14 -4 23 6 26 13 6 13 -8 0 -17 -4 -20 -9z"/>
<path d="M2904 318 c9 -5 23 -5 32 0 12 6 7 9 -16 9 -23 0 -28 -3 -16 -9z"/>
<path d="M3495 320 c-2 -3 9 -6 25 -6 17 0 27 2 25 5 -8 7 -45 9 -50 1z"/>
<path d="M2817 313 c-3 -5 6 -9 20 -10 19 -1 22 1 12 8 -17 11 -26 11 -32 2z"/>
<path d="M2215 300 c3 -5 8 -10 11 -10 2 0 4 5 4 10 0 6 -5 10 -11 10 -5 0 -7
-4 -4 -10z"/>
<path d="M2510 296 c7 -7 13 -7 20 0 6 6 3 10 -10 10 -13 0 -16 -4 -10 -10z"/>
<path d="M2760 300 c-9 -6 -10 -10 -3 -10 6 0 15 5 18 10 8 12 4 12 -15 0z"/>
<path d="M2870 306 c0 -2 7 -7 16 -10 8 -3 12 -2 9 4 -6 10 -25 14 -25 6z"/>
<path d="M2941 301 c-10 -7 -7 -9 12 -8 14 1 23 5 20 10 -6 9 -15 9 -32 -2z"/>
<path d="M3250 299 c0 -5 5 -7 10 -4 6 3 10 8 10 11 0 2 -4 4 -10 4 -5 0 -10
-5 -10 -11z"/>
<path d="M3330 299 c0 -5 5 -7 10 -4 6 3 10 8 10 11 0 2 -4 4 -10 4 -5 0 -10
-5 -10 -11z"/>
<path d="M3840 300 c-9 -6 -10 -10 -3 -10 6 0 15 5 18 10 8 12 4 12 -15 0z"/>
<path d="M2370 279 c0 -5 5 -7 10 -4 6 3 10 8 10 11 0 2 -4 4 -10 4 -5 0 -10
-5 -10 -11z"/>
<path d="M2607 279 c7 -7 15 -10 18 -7 3 3 -2 9 -12 12 -14 6 -15 5 -6 -5z"/>
<path d="M2696 253 c-6 -14 -5 -15 5 -6 7 7 10 15 7 18 -3 3 -9 -2 -12 -12z"/>
</g>
</svg>
